Antonio-800.ufo
<glyph name="exclam" format="1">
  <advance width="495"/>
  <unicode hex="0021"/>
  <outline>
    <contour>
      <point x="72" y="1762" type="line"/>
      <point x="424" y="1762" type="line"/>
      <point x="325" y="462" type="line"/>
      <point x="179" y="462" type="line"/>
    </contour>
    <contour>
      <point x="91" y="295" type="line"/>
      <point x="404" y="295" type="line"/>
      <point x="404" y="0" type="line"/>
      <point x="91" y="0" type="line"/>
    </contour>
  </outline>
</glyph>
<glyph name="quotedbl" format="1">
  <advance width="1221"/>
  <unicode hex="0022"/>
  <outline>
    <contour>
      <point x="602" y="1762" type="line"/>
      <point x="923" y="1762" type="line"/>
      <point x="930" y="1218" type="line"/>
      <point x="769" y="1218" type="line"/>
    </contour>
    <contour>
      <point x="182" y="1762" type="line"/>
      <point x="505" y="1762" type="line"/>
      <point x="512" y="1218" type="line"/>
      <point x="352" y="1218" type="line"/>
    </contour>
  </outline>
</glyph>
<glyph name="numbersign" format="1">
  <advance width="1889"/>
  <unicode hex="0023"/>
  <outline>
    <contour>
      <point x="1248" y="1763" type="line"/>
      <point x="1575" y="1763" type="line"/>
      <point x="1424" y="1251" type="line"/>
      <point x="1509" y="1251" type="line"/>
      <point x="1509" y="965" type="line"/>
      <point x="1361" y="965" type="line"/>
      <point x="1300" y="803" type="line"/>
      <point x="1399" y="803" type="line"/>
      <point x="1399" y="514" type="line"/>
      <point x="1232" y="514" type="line"/>
      <point x="1080" y="0" type="line"/>
      <point x="756" y="0" type="line"/>
      <point x="908" y="514" type="line"/>
      <point x="692" y="514" type="line"/>
      <point x="541" y="0" type="line"/>
      <point x="217" y="0" type="line"/>
      <point x="367" y="514" type="line"/>
      <point x="281" y="514" type="line"/>
      <point x="281" y="803" type="line"/>
      <point x="433" y="803" type="line"/>
      <point x="493" y="965" type="line"/>
      <point x="391" y="965" type="line"/>
      <point x="391" y="1251" type="line"/>
      <point x="557" y="1251" type="line"/>
      <point x="709" y="1763" type="line"/>
      <point x="1035" y="1763" type="line"/>
      <point x="882" y="1251" type="line"/>
      <point x="1099" y="1251" type="line"/>
    </contour>
    <contour>
      <point x="974" y="802" type="line"/>
      <point x="1036" y="963" type="line"/>
      <point x="819" y="963" type="line"/>
      <point x="760" y="802" type="line"/>
    </contour>
  </outline>
</glyph>
<glyph name="dollar" format="1">
  <advance width="1038"/>
  <unicode hex="0024"/>
  <outline>
    <contour>
      <point x="462" y="79" type="line"/>
      <point x="653" y="79" type="line"/>
      <point x="653" y="-184" type="line"/>
      <point x="462" y="-184" type="line"/>
    </contour>
    <contour>
      <point x="461" y="1760" type="line"/>
      <point x="652" y="1760" type="line"/>
      <point x="652" y="1530" type="line"/>
      <point x="461" y="1530" type="line"/>
    </contour>
    <component base="s" yOffset="39"/>
  </outline>
</glyph>
<glyph name="percent" format="1">
  <advance width="2252"/>
  <unicode hex="0025"/>
  <outline>
    <contour>
      <point x="1329" y="1762" type="line"/>
      <point x="1579" y="1762" type="line"/>
      <point x="936" y="0" type="line"/>
      <point x="676" y="0" type="line"/>
    </contour>
    <contour>
      <point x="551" y="1428" type="line"/>
      <point x="551" y="1508"/>
      <point x="536" y="1557"/>
      <point x="457" y="1557" type="curve" smooth="yes"/>
      <point x="378" y="1557"/>
      <point x="363" y="1507"/>
      <point x="363" y="1428" type="curve" smooth="yes"/>
      <point x="363" y="942" type="line" smooth="yes"/>
      <point x="363" y="861"/>
      <point x="384" y="804"/>
      <point x="457" y="804" type="curve" smooth="yes"/>
      <point x="530" y="804"/>
      <point x="551" y="861"/>
      <point x="551" y="942" type="curve" smooth="yes"/>
    </contour>
    <contour>
      <point x="80" y="1362" type="line"/>
      <point x="80" y="1634"/>
      <point x="195" y="1780"/>
      <point x="457" y="1780" type="curve" smooth="yes"/>
      <point x="717" y="1780"/>
      <point x="832" y="1634"/>
      <point x="832" y="1362" type="curve" smooth="yes"/>
      <point x="832" y="999" type="line" smooth="yes"/>
      <point x="832" y="742"/>
      <point x="705" y="579"/>
      <point x="457" y="579" type="curve" smooth="yes"/>
      <point x="210" y="579"/>
      <point x="80" y="742"/>
      <point x="80" y="999" type="curve" smooth="yes"/>
    </contour>
    <contour>
      <point x="1436" y="761" type="line"/>
      <point x="1436" y="1033"/>
      <point x="1551" y="1179"/>
      <point x="1812" y="1179" type="curve" smooth="yes"/>
      <point x="2076" y="1179"/>
      <point x="2191" y="1033"/>
      <point x="2191" y="761" type="curve" smooth="yes"/>
      <point x="2191" y="398" type="line" smooth="yes"/>
      <point x="2191" y="141"/>
      <point x="2061" y="-22"/>
      <point x="1812" y="-22" type="curve" smooth="yes"/>
      <point x="1566" y="-22"/>
      <point x="1436" y="141"/>
      <point x="1436" y="398" type="curve" smooth="yes"/>
    </contour>
    <contour>
      <point x="1908" y="827" type="line"/>
      <point x="1908" y="907"/>
      <point x="1891" y="956"/>
      <point x="1812" y="956" type="curve" smooth="yes"/>
      <point x="1733" y="956"/>
      <point x="1718" y="906"/>
      <point x="1718" y="827" type="curve" smooth="yes"/>
      <point x="1718" y="341" type="line" smooth="yes"/>
      <point x="1718" y="260"/>
      <point x="1738" y="203"/>
      <point x="1812" y="203" type="curve" smooth="yes"/>
      <point x="1886" y="203"/>
      <point x="1908" y="260"/>
      <point x="1908" y="341" type="curve" smooth="yes"/>
    </contour>
  </outline>
</glyph>
<glyph name="ampersand" format="1">
  <advance width="1182"/>
  <unicode hex="0026"/>
  <outline>
    <contour>
      <point x="600" y="1780" type="curve" smooth="yes"/>
      <point x="821" y="1780"/>
      <point x="965" y="1662"/>
      <point x="965" y="1438" type="curve" smooth="yes"/>
      <point x="965" y="1261"/>
      <point x="858" y="1115"/>
      <point x="724" y="955" type="curve"/>
      <point x="819" y="707"/>
      <point x="708" y="972"/>
      <point x="813" y="717" type="curve"/>
      <point x="874" y="800"/>
      <point x="944" y="890"/>
      <point x="1028" y="981" type="curve"/>
      <point x="1167" y="744" type="line"/>
      <point x="1077" y="663"/>
      <point x="1013" y="542"/>
      <point x="937" y="426" type="curve"/>
      <point x="1099" y="44"/>
      <point x="1028" y="174"/>
      <point x="1102" y="0" type="curve"/>
      <point x="762" y="0" type="line"/>
      <point x="734" y="69"/>
      <point x="798" y="-59"/>
      <point x="739" y="75" type="curve"/>
      <point x="652" y="19"/>
      <point x="538" y="-20"/>
      <point x="423" y="-20" type="curve" smooth="yes"/>
      <point x="183" y="-20"/>
      <point x="79" y="157"/>
      <point x="79" y="435" type="curve" smooth="yes"/>
      <point x="79" y="566"/>
      <point x="224" y="752"/>
      <point x="376" y="920" type="curve"/>
      <point x="295" y="1132"/>
      <point x="236" y="1325"/>
      <point x="236" y="1427" type="curve" smooth="yes"/>
      <point x="236" y="1654"/>
      <point x="383" y="1780"/>
    </contour>
    <contour>
      <point x="622" y="335" type="curve"/>
      <point x="505" y="597"/>
      <point x="613" y="319"/>
      <point x="489" y="617" type="curve"/>
      <point x="417" y="533"/>
      <point x="354" y="473"/>
      <point x="355" y="428" type="curve"/>
      <point x="356" y="320"/>
      <point x="414" y="280"/>
      <point x="492" y="280" type="curve" smooth="yes"/>
      <point x="520" y="280"/>
      <point x="577" y="301"/>
    </contour>
    <contour>
      <point x="621" y="1244" type="curve"/>
      <point x="697" y="1334"/>
      <point x="749" y="1389"/>
      <point x="749" y="1441" type="curve" smooth="yes"/>
      <point x="749" y="1539"/>
      <point x="721" y="1575"/>
      <point x="661" y="1575" type="curve" smooth="yes"/>
      <point x="600" y="1575"/>
      <point x="559" y="1527"/>
      <point x="559" y="1453" type="curve" smooth="yes"/>
      <point x="559" y="1418"/>
      <point x="580" y="1359"/>
    </contour>
  </outline>
</glyph>
<glyph name="quotesingle" format="1">
  <advance width="437"/>
  <unicode hex="0027"/>
  <outline>
    <contour>
      <point x="83" y="1761" type="line"/>
      <point x="378" y="1761" type="line"/>
      <point x="313" y="1125" type="line"/>
      <point x="143" y="1125" type="line"/>
    </contour>
  </outline>
</glyph>
<glyph name="parenleft" format="1">
  <advance width="701"/>
  <unicode hex="0028"/>
  <outline>
    <contour>
      <point x="122" y="1404" type="line"/>
      <point x="122" y="1767"/>
      <point x="268" y="1880"/>
      <point x="612" y="1880" type="curve"/>
      <point x="612" y="1617" type="line"/>
      <point x="492" y="1617"/>
      <point x="473" y="1533"/>
      <point x="473" y="1408" type="curve" smooth="yes"/>
      <point x="473" y="482" type="line" smooth="yes"/>
      <point x="473" y="356"/>
      <point x="492" y="273"/>
      <point x="612" y="273" type="curve"/>
      <point x="612" y="11" type="line"/>
      <point x="268" y="11"/>
      <point x="122" y="123"/>
      <point x="122" y="486" type="curve" smooth="yes"/>
    </contour>
  </outline>
</glyph>
<glyph name="parenright" format="1">
  <advance width="701"/>
  <unicode hex="0029"/>
  <outline>
    <contour>
      <point x="579" y="1404" type="curve" smooth="yes"/>
      <point x="579" y="486" type="line" smooth="yes"/>
      <point x="579" y="123"/>
      <point x="435" y="11"/>
      <point x="92" y="11" type="curve"/>
      <point x="92" y="273" type="line"/>
      <point x="212" y="273"/>
      <point x="231" y="356"/>
      <point x="231" y="482" type="curve" smooth="yes"/>
      <point x="231" y="1408" type="line" smooth="yes"/>
      <point x="231" y="1533"/>
      <point x="212" y="1617"/>
      <point x="92" y="1617" type="curve"/>
      <point x="92" y="1880" type="line"/>
      <point x="435" y="1880"/>
      <point x="579" y="1767"/>
    </contour>
  </outline>
</glyph>
<glyph name="asterisk" format="1">
  <advance width="1079"/>
  <unicode hex="002A"/>
  <outline>
    <contour>
      <point x="426" y="1553" type="line"/>
      <point x="653" y="1553" type="line"/>
      <point x="619" y="1268" type="line"/>
      <point x="850" y="1442" type="line"/>
      <point x="965" y="1243" type="line"/>
      <point x="691" y="1134" type="line"/>
      <point x="965" y="1015" type="line"/>
      <point x="850" y="821" type="line"/>
      <point x="619" y="1001" type="line"/>
      <point x="653" y="706" type="line"/>
      <point x="426" y="706" type="line"/>
      <point x="468" y="1008" type="line"/>
      <point x="232" y="818" type="line"/>
      <point x="116" y="1015" type="line"/>
      <point x="390" y="1134" type="line"/>
      <point x="115" y="1244" type="line"/>
      <point x="229" y="1442" type="line"/>
      <point x="467" y="1262" type="line"/>
    </contour>
  </outline>
</glyph>
<glyph name="plus" format="1">
  <advance width="985"/>
  <unicode hex="002B"/>
  <outline>
    <contour>
      <point x="378" y="958" type="line"/>
      <point x="606" y="958" type="line"/>
      <point x="606" y="748" type="line"/>
      <point x="814" y="748" type="line"/>
      <point x="814" y="520" type="line"/>
      <point x="606" y="520" type="line"/>
      <point x="606" y="310" type="line"/>
      <point x="378" y="310" type="line"/>
      <point x="378" y="520" type="line"/>
      <point x="169" y="520" type="line"/>
      <point x="169" y="748" type="line"/>
      <point x="378" y="748" type="line"/>
    </contour>
  </outline>
</glyph>
<glyph name="comma" format="1">
  <advance width="524"/>
  <unicode hex="002C"/>
  <outline>
    <contour>
      <point x="114" y="314" type="line"/>
      <point x="444" y="314" type="line"/>
      <point x="444" y="9" type="line"/>
      <point x="340" y="-330" type="line"/>
      <point x="175" y="-330" type="line"/>
      <point x="241" y="0" type="line"/>
      <point x="114" y="0" type="line"/>
    </contour>
  </outline>
</glyph>
<glyph name="hyphen" format="1">
  <advance width="696"/>
  <unicode hex="002D"/>
  <outline>
    <contour>
      <point x="90" y="736" type="line"/>
      <point x="604" y="736" type="line"/>
      <point x="604" y="520" type="line"/>
      <point x="90" y="520" type="line"/>
    </contour>
  </outline>
</glyph>
<glyph name="period" format="1">
  <advance width="532"/>
  <unicode hex="002E"/>
  <outline>
    <contour>
      <point x="119" y="312" type="line"/>
      <point x="413" y="312" type="line"/>
      <point x="413" y="0" type="line"/>
      <point x="119" y="0" type="line"/>
    </contour>
  </outline>
</glyph>
<glyph name="slash" format="1">
  <advance width="959"/>
  <unicode hex="002F"/>
  <outline>
    <contour>
      <point x="541" y="1770" type="line"/>
      <point x="848" y="1770" type="line"/>
      <point x="436" y="0" type="line"/>
      <point x="130" y="0" type="line"/>
    </contour>
  </outline>
</glyph>
<glyph name="zero" format="1">
  <advance width="1226"/>
  <unicode hex="0030"/>
  <outline>
    <contour>
      <point x="74" y="1316" type="line"/>
      <point x="74" y="1619"/>
      <point x="315" y="1781"/>
      <point x="597" y="1781" type="curve" smooth="yes"/>
      <point x="879" y="1781"/>
      <point x="1133" y="1619"/>
      <point x="1133" y="1316" type="curve" smooth="yes"/>
      <point x="1133" y="475" type="line" smooth="yes"/>
      <point x="1133" y="162"/>
      <point x="885" y="-21"/>
      <point x="597" y="-21" type="curve" smooth="yes"/>
      <point x="309" y="-21"/>
      <point x="74" y="162"/>
      <point x="74" y="475" type="curve" smooth="yes"/>
    </contour>
    <contour>
      <point x="765" y="1327" type="line"/>
      <point x="765" y="1422"/>
      <point x="667" y="1474"/>
      <point x="597" y="1474" type="curve" smooth="yes"/>
      <point x="529" y="1474"/>
      <point x="439" y="1431"/>
      <point x="439" y="1328" type="curve" smooth="yes"/>
      <point x="439" y="470" type="line" smooth="yes"/>
      <point x="439" y="348"/>
      <point x="515" y="288"/>
      <point x="597" y="288" type="curve" smooth="yes"/>
      <point x="674" y="288"/>
      <point x="765" y="356"/>
      <point x="765" y="470" type="curve" smooth="yes"/>
    </contour>
  </outline>
</glyph>
<glyph name="one" format="1">
  <advance width="430"/>
  <unicode hex="0031"/>
  <outline>
    <contour>
      <point x="131" y="1761" type="curve"/>
      <point x="425" y="1761" type="line"/>
      <point x="425" y="0" type="line"/>
      <point x="71" y="0" type="line"/>
      <point x="71" y="1352" type="line"/>
      <point x="23" y="1295"/>
      <point x="-4" y="1294"/>
      <point x="-78" y="1294" type="curve"/>
      <point x="-78" y="1541" type="line"/>
      <point x="28" y="1556"/>
      <point x="75" y="1629"/>
    </contour>
  </outline>
</glyph>
<glyph name="three" format="1">
  <advance width="1107"/>
  <unicode hex="0033"/>
  <outline>
    <contour>
      <point x="100" y="1298" type="line"/>
      <point x="100" y="1622"/>
      <point x="221" y="1780"/>
      <point x="539" y="1780" type="curve" smooth="yes"/>
      <point x="842" y="1780"/>
      <point x="997" y="1626"/>
      <point x="997" y="1312" type="curve" smooth="yes"/>
      <point x="997" y="1138"/>
      <point x="936" y="1005"/>
      <point x="812" y="960" type="curve"/>
      <point x="960" y="888"/>
      <point x="999" y="762"/>
      <point x="999" y="528" type="curve" smooth="yes"/>
      <point x="999" y="177"/>
      <point x="867" y="-20"/>
      <point x="524" y="-20" type="curve" smooth="yes"/>
      <point x="208" y="-20"/>
      <point x="101" y="157"/>
      <point x="101" y="488" type="curve" smooth="yes"/>
      <point x="101" y="640" type="line"/>
      <point x="429" y="640" type="line"/>
      <point x="429" y="461" type="line" smooth="yes"/>
      <point x="429" y="363"/>
      <point x="441" y="286"/>
      <point x="539" y="286" type="curve" smooth="yes"/>
      <point x="632" y="286"/>
      <point x="655" y="386"/>
      <point x="655" y="528" type="curve" smooth="yes"/>
      <point x="655" y="708"/>
      <point x="635" y="810"/>
      <point x="510" y="810" type="curve" smooth="yes"/>
      <point x="396" y="810" type="line"/>
      <point x="396" y="1068" type="line"/>
      <point x="508" y="1068" type="line" smooth="yes"/>
      <point x="628" y="1068"/>
      <point x="658" y="1181"/>
      <point x="658" y="1312" type="curve" smooth="yes"/>
      <point x="658" y="1427"/>
      <point x="620" y="1473"/>
      <point x="552" y="1473" type="curve" smooth="yes"/>
      <point x="451" y="1473"/>
      <point x="444" y="1404"/>
      <point x="444" y="1311" type="curve" smooth="yes"/>
      <point x="444" y="1243" type="line"/>
      <point x="100" y="1243" type="line"/>
    </contour>
  </outline>
</glyph>
<glyph name="four" format="1">
  <advance width="1085"/>
  <unicode hex="0034"/>
  <outline>
    <contour>
      <point x="484" y="1762" type="line"/>
      <point x="871" y="1762" type="line"/>
      <point x="871" y="568" type="line"/>
      <point x="995" y="568" type="line"/>
      <point x="995" y="280" type="line"/>
      <point x="871" y="280" type="line"/>
      <point x="871" y="-1" type="line"/>
      <point x="561" y="-1" type="line"/>
      <point x="561" y="280" type="line"/>
      <point x="102" y="280" type="line"/>
      <point x="102" y="549" type="line"/>
    </contour>
    <contour>
      <point x="561" y="568" type="line"/>
      <point x="561" y="1371" type="line"/>
      <point x="361" y="568" type="line"/>
    </contour>
  </outline>
</glyph>
<glyph name="five" format="1">
  <advance width="1085"/>
  <unicode hex="0035"/>
  <outline>
    <contour>
      <point x="94" y="1760" type="line"/>
      <point x="881" y="1760" type="line"/>
      <point x="881" y="1445" type="line"/>
      <point x="422" y="1445" type="line"/>
      <point x="422" y="1163" type="line"/>
      <point x="451" y="1223"/>
      <point x="538" y="1264"/>
      <point x="632" y="1264" type="curve" smooth="yes"/>
      <point x="896" y="1264"/>
      <point x="935" y="992"/>
      <point x="935" y="668" type="curve" smooth="yes"/>
      <point x="935" y="242"/>
      <point x="907" y="-20"/>
      <point x="500" y="-20" type="curve" smooth="yes"/>
      <point x="230" y="-20"/>
      <point x="93" y="108"/>
      <point x="93" y="380" type="curve" smooth="yes"/>
      <point x="93" y="639" type="line"/>
      <point x="415" y="639" type="line"/>
      <point x="415" y="449" type="line" smooth="yes"/>
      <point x="415" y="357"/>
      <point x="415" y="285"/>
      <point x="500" y="285" type="curve" smooth="yes"/>
      <point x="576" y="285"/>
      <point x="590" y="344"/>
      <point x="590" y="460" type="curve" smooth="yes"/>
      <point x="590" y="806" type="line" smooth="yes"/>
      <point x="590" y="894"/>
      <point x="585" y="975"/>
      <point x="502" y="975" type="curve" smooth="yes"/>
      <point x="435" y="975"/>
      <point x="411" y="925"/>
      <point x="411" y="826" type="curve"/>
      <point x="94" y="827" type="line"/>
    </contour>
  </outline>
</glyph>
<glyph name="six" format="1">
  <advance width="1085"/>
  <unicode hex="0036"/>
  <outline>
    <contour>
      <point x="438" y="458" type="line"/>
      <point x="438" y="350"/>
      <point x="475" y="288"/>
      <point x="560" y="288" type="curve" smooth="yes"/>
      <point x="628" y="288"/>
      <point x="672" y="301"/>
      <point x="672" y="410" type="curve" smooth="yes"/>
      <point x="672" y="627" type="line" smooth="yes"/>
      <point x="672" y="735"/>
      <point x="620" y="787"/>
      <point x="566" y="787" type="curve" smooth="yes"/>
      <point x="483" y="787"/>
      <point x="457" y="744"/>
      <point x="438" y="627" type="curve"/>
    </contour>
    <contour>
      <point x="1029" y="450" type="line"/>
      <point x="1029" y="95"/>
      <point x="884" y="-21"/>
      <point x="553" y="-21" type="curve" smooth="yes"/>
      <point x="176" y="-21"/>
      <point x="72" y="203"/>
      <point x="72" y="573" type="curve" smooth="yes"/>
      <point x="72" y="1272" type="line" smooth="yes"/>
      <point x="72" y="1707"/>
      <point x="294" y="1784"/>
      <point x="574" y="1784" type="curve" smooth="yes"/>
      <point x="829" y="1784"/>
      <point x="975" y="1671"/>
      <point x="979" y="1346" type="curve" smooth="yes"/>
      <point x="979" y="1244" type="line"/>
      <point x="638" y="1244" type="line"/>
      <point x="638" y="1256" type="line" smooth="yes"/>
      <point x="638" y="1349"/>
      <point x="651" y="1470"/>
      <point x="565" y="1470" type="curve" smooth="yes"/>
      <point x="481" y="1470"/>
      <point x="438" y="1449"/>
      <point x="438" y="1300" type="curve" smooth="yes"/>
      <point x="438" y="986" type="line"/>
      <point x="484" y="1073"/>
      <point x="577" y="1110"/>
      <point x="685" y="1113" type="curve" smooth="yes"/>
      <point x="920" y="1122"/>
      <point x="1029" y="945"/>
      <point x="1029" y="601" type="curve" smooth="yes"/>
    </contour>
  </outline>
</glyph>
<glyph name="seven" format="1">
  <advance width="1085"/>
  <unicode hex="0037"/>
  <outline>
    <contour>
      <point x="132" y="1761" type="line"/>
      <point x="1013" y="1761" type="line"/>
      <point x="1013" y="1504" type="line"/>
      <point x="989" y="1305"/>
      <point x="884" y="1140"/>
      <point x="812" y="953" type="curve"/>
      <point x="710" y="682"/>
      <point x="622" y="371"/>
      <point x="600" y="1" type="curve"/>
      <point x="209" y="1" type="line"/>
      <point x="243" y="491"/>
      <point x="412" y="868"/>
      <point x="557" y="1231" type="curve"/>
      <point x="592" y="1317"/>
      <point x="616" y="1393"/>
      <point x="630" y="1442" type="curve"/>
      <point x="132" y="1442" type="line"/>
    </contour>
  </outline>
</glyph>
<glyph name="eight" format="1">
  <advance width="1085"/>
  <unicode hex="0038"/>
  <outline>
    <contour>
      <point x="93" y="1337" type="curve" smooth="yes"/>
      <point x="93" y="1647"/>
      <point x="247" y="1782"/>
      <point x="543" y="1782" type="curve" smooth="yes"/>
      <point x="849" y="1782"/>
      <point x="990" y="1658"/>
      <point x="990" y="1337" type="curve" smooth="yes"/>
      <point x="990" y="1188"/>
      <point x="938" y="1048"/>
      <point x="843" y="982" type="curve"/>
      <point x="930" y="920"/>
      <point x="991" y="801"/>
      <point x="991" y="644" type="curve" smooth="yes"/>
      <point x="991" y="453" type="line" smooth="yes"/>
      <point x="984" y="140"/>
      <point x="830" y="-22"/>
      <point x="544" y="-22" type="curve" smooth="yes"/>
      <point x="259" y="-22"/>
      <point x="97" y="140"/>
      <point x="93" y="450" type="curve" smooth="yes"/>
      <point x="91" y="467"/>
      <point x="92" y="628"/>
      <point x="92" y="644" type="curve" smooth="yes"/>
      <point x="95" y="804"/>
      <point x="146" y="921"/>
      <point x="237" y="986" type="curve"/>
      <point x="142" y="1052"/>
      <point x="93" y="1190"/>
    </contour>
    <contour>
      <point x="637" y="695" type="line"/>
      <point x="637" y="772"/>
      <point x="616" y="846"/>
      <point x="545" y="846" type="curve" smooth="yes"/>
      <point x="477" y="846"/>
      <point x="444" y="781"/>
      <point x="444" y="697" type="curve" smooth="yes"/>
      <point x="444" y="442" type="line" smooth="yes"/>
      <point x="447" y="345"/>
      <point x="461" y="283"/>
      <point x="545" y="283" type="curve" smooth="yes"/>
      <point x="623" y="283"/>
      <point x="637" y="353"/>
      <point x="637" y="445" type="curve" smooth="yes"/>
    </contour>
    <contour>
      <point x="628" y="1291" type="curve" smooth="yes"/>
      <point x="628" y="1477"/>
      <point x="616" y="1516"/>
      <point x="543" y="1516" type="curve" smooth="yes"/>
      <point x="471" y="1516"/>
      <point x="458" y="1470"/>
      <point x="458" y="1291" type="curve" smooth="yes"/>
      <point x="458" y="1115"/>
      <point x="482" y="1069"/>
      <point x="543" y="1069" type="curve" smooth="yes"/>
      <point x="605" y="1069"/>
      <point x="628" y="1116"/>
    </contour>
  </outline>
</glyph>
<glyph name="nine" format="1">
  <advance width="1085"/>
  <unicode hex="0039"/>
  <outline>
    <contour>
      <point x="17" y="1244" type="line"/>
      <point x="17" y="1598"/>
      <point x="141" y="1784"/>
      <point x="496" y="1784" type="curve" smooth="yes"/>
      <point x="873" y="1784"/>
      <point x="920" y="1586"/>
      <point x="920" y="1190" type="curve" smooth="yes"/>
      <point x="920" y="538" type="line" smooth="yes"/>
      <point x="920" y="103"/>
      <point x="740" y="-19"/>
      <point x="460" y="-19" type="curve" smooth="yes"/>
      <point x="239" y="-19"/>
      <point x="50" y="92"/>
      <point x="46" y="415" type="curve" smooth="yes"/>
      <point x="46" y="529" type="line"/>
      <point x="394" y="529" type="line"/>
      <point x="394" y="514" type="line" smooth="yes"/>
      <point x="396" y="385"/>
      <point x="408" y="288"/>
      <point x="484" y="288" type="curve" smooth="yes"/>
      <point x="563" y="288"/>
      <point x="560" y="354"/>
      <point x="560" y="481" type="curve" smooth="yes"/>
      <point x="560" y="682" type="line"/>
      <point x="528" y="668"/>
      <point x="484" y="667"/>
      <point x="397" y="667" type="curve" smooth="yes"/>
      <point x="146" y="667"/>
      <point x="17" y="861"/>
      <point x="17" y="1172" type="curve" smooth="yes"/>
    </contour>
    <contour>
      <point x="560" y="1312" type="line"/>
      <point x="560" y="1406"/>
      <point x="536" y="1475"/>
      <point x="475" y="1475" type="curve" smooth="yes"/>
      <point x="407" y="1475"/>
      <point x="383" y="1387"/>
      <point x="383" y="1293" type="curve" smooth="yes"/>
      <point x="383" y="1100" type="line" smooth="yes"/>
      <point x="383" y="1009"/>
      <point x="420" y="964"/>
      <point x="481" y="964" type="curve" smooth="yes"/>
      <point x="545" y="964"/>
      <point x="538" y="968"/>
      <point x="560" y="1104" type="curve"/>
    </contour>
  </outline>
</glyph>
<glyph name="colon" format="1">
  <advance width="646"/>
  <unicode hex="003A"/>
  <outline>
    <contour>
      <point x="142" y="1307" type="line"/>
      <point x="505" y="1307" type="line"/>
      <point x="505" y="1026" type="line"/>
      <point x="142" y="1026" type="line"/>
    </contour>
    <contour>
      <point x="142" y="551" type="line"/>
      <point x="505" y="551" type="line"/>
      <point x="505" y="270" type="line"/>
      <point x="142" y="270" type="line"/>
    </contour>
  </outline>
</glyph>
<glyph name="semicolon" format="1">
  <advance width="561"/>
  <unicode hex="003B"/>
  <outline>
    <contour>
      <point x="35" y="532" type="line"/>
      <point x="445" y="532" type="line"/>
      <point x="445" y="227" type="line"/>
      <point x="343" y="-113" type="line"/>
      <point x="176" y="-113" type="line"/>
      <point x="243" y="218" type="line"/>
      <point x="35" y="218" type="line"/>
    </contour>
    <contour>
      <point x="21" y="1272" type="line"/>
      <point x="431" y="1272" type="line"/>
      <point x="431" y="930" type="line"/>
      <point x="21" y="930" type="line"/>
    </contour>
  </outline>
</glyph>
<glyph name="less" format="1">
  <advance width="730"/>
  <unicode hex="003C"/>
  <outline>
    <contour>
      <point x="66" y="953" type="line"/>
      <point x="635" y="1296" type="line"/>
      <point x="635" y="945" type="line"/>
      <point x="290" y="750" type="line"/>
      <point x="635" y="554" type="line"/>
      <point x="635" y="202" type="line"/>
      <point x="66" y="549" type="line"/>
    </contour>
  </outline>
</glyph>
<glyph name="equal" format="1">
  <advance width="722"/>
  <unicode hex="003D"/>
  <outline>
    <contour>
      <point x="132" y="742" type="line"/>
      <point x="549" y="742" type="line"/>
      <point x="549" y="512" type="line"/>
      <point x="132" y="512" type="line"/>
    </contour>
    <contour>
      <point x="132" y="1112" type="line"/>
      <point x="549" y="1112" type="line"/>
      <point x="549" y="892" type="line"/>
      <point x="132" y="892" type="line"/>
    </contour>
  </outline>
</glyph>
<glyph name="greater" format="1">
  <advance width="730"/>
  <unicode hex="003E"/>
  <outline>
    <contour>
      <point x="94" y="944" type="line"/>
      <point x="94" y="1296" type="line"/>
      <point x="665" y="955" type="line"/>
      <point x="665" y="548" type="line"/>
      <point x="94" y="202" type="line"/>
      <point x="94" y="553" type="line"/>
      <point x="439" y="749" type="line"/>
    </contour>
  </outline>
</glyph>
<glyph name="question" format="1">
  <advance width="957"/>
  <unicode hex="003F"/>
  <outline>
    <contour>
      <point x="66" y="1384" type="line"/>
      <point x="66" y="1649"/>
      <point x="220" y="1780"/>
      <point x="491" y="1780" type="curve" smooth="yes"/>
      <point x="841" y="1780"/>
      <point x="926" y="1610"/>
      <point x="926" y="1261" type="curve" smooth="yes"/>
      <point x="926" y="915"/>
      <point x="884" y="732"/>
      <point x="556" y="637" type="curve"/>
      <point x="556" y="494" type="line"/>
      <point x="241" y="494" type="line"/>
      <point x="241" y="810" type="line"/>
      <point x="553" y="871"/>
      <point x="573" y="969"/>
      <point x="573" y="1312" type="curve" smooth="yes"/>
      <point x="573" y="1405"/>
      <point x="575" y="1473"/>
      <point x="495" y="1473" type="curve" smooth="yes"/>
      <point x="408" y="1473"/>
      <point x="407" y="1404"/>
      <point x="407" y="1308" type="curve" smooth="yes"/>
      <point x="407" y="1160" type="line"/>
      <point x="66" y="1160" type="line"/>
    </contour>
    <contour>
      <point x="251" y="299" type="line"/>
      <point x="560" y="299" type="line"/>
      <point x="560" y="1" type="line"/>
      <point x="251" y="1" type="line"/>
    </contour>
  </outline>
</glyph>
<glyph name="A" format="1">
  <advance width="955"/>
  <unicode hex="0041"/>
  <outline>
    <contour>
      <point x="225" y="1760" type="line"/>
      <point x="725" y="1760" type="line"/>
      <point x="958" y="0" type="line"/>
      <point x="632" y="0" type="line"/>
      <point x="601" y="284" type="line"/>
      <point x="366" y="284" type="line"/>
      <point x="339" y="0" type="line"/>
      <point x="-4" y="0" type="line"/>
    </contour>
    <contour>
      <point x="396" y="564" type="line"/>
      <point x="570" y="564" type="line"/>
      <point x="482" y="1384" type="line"/>
      <point x="476" y="1384" type="line"/>
    </contour>
  </outline>
</glyph>
<glyph name="B" format="1">
  <advance width="1078"/>
  <unicode hex="0042"/>
  <outline>
    <contour>
      <point x="115" y="1760" type="line"/>
      <point x="584" y="1760" type="line" smooth="yes"/>
      <point x="843" y="1760"/>
      <point x="971" y="1645"/>
      <point x="971" y="1359" type="curve"/>
      <point x="971" y="1283" type="line" smooth="yes"/>
      <point x="971" y="1118"/>
      <point x="908" y="1001"/>
      <point x="787" y="967" type="curve"/>
      <point x="943" y="928"/>
      <point x="1011" y="773"/>
      <point x="1011" y="563" type="curve" smooth="yes"/>
      <point x="1011" y="507" type="line"/>
      <point x="1012" y="142"/>
      <point x="861" y="0"/>
      <point x="567" y="0" type="curve" smooth="yes"/>
      <point x="115" y="0" type="line"/>
    </contour>
    <contour>
      <point x="656" y="660" type="line"/>
      <point x="656" y="767"/>
      <point x="632" y="821"/>
      <point x="546" y="821" type="curve" smooth="yes"/>
      <point x="468" y="821" type="line"/>
      <point x="468" y="265" type="line"/>
      <point x="519" y="265" type="line" smooth="yes"/>
      <point x="609" y="265"/>
      <point x="656" y="310"/>
      <point x="656" y="406" type="curve" smooth="yes"/>
    </contour>
    <contour>
      <point x="625" y="1404" type="line"/>
      <point x="624" y="1467"/>
      <point x="595" y="1493"/>
      <point x="541" y="1493" type="curve" smooth="yes"/>
      <point x="468" y="1493" type="line"/>
      <point x="468" y="1080" type="line"/>
      <point x="542" y="1080" type="line" smooth="yes"/>
      <point x="609" y="1080"/>
      <point x="625" y="1140"/>
      <point x="625" y="1219" type="curve" smooth="yes"/>
    </contour>
  </outline>
</glyph>
<glyph name="C" format="1">
  <advance width="1040"/>
  <unicode hex="0043"/>
  <outline>
    <contour>
      <point x="91" y="1254" type="line"/>
      <point x="91" y="1593"/>
      <point x="228" y="1779"/>
      <point x="532" y="1779" type="curve" smooth="yes"/>
      <point x="785" y="1779"/>
      <point x="957" y="1641"/>
      <point x="957" y="1365" type="curve" smooth="yes"/>
      <point x="957" y="1058" type="line"/>
      <point x="620" y="1058" type="line"/>
      <point x="620" y="1323" type="line" smooth="yes"/>
      <point x="620" y="1432"/>
      <point x="596" y="1473"/>
      <point x="537" y="1473" type="curve" smooth="yes"/>
      <point x="464" y="1473"/>
      <point x="448" y="1407"/>
      <point x="448" y="1324" type="curve" smooth="yes"/>
      <point x="448" y="419" type="line" smooth="yes"/>
      <point x="448" y="336"/>
      <point x="474" y="286"/>
      <point x="531" y="286" type="curve" smooth="yes"/>
      <point x="592" y="286"/>
      <point x="620" y="338"/>
      <point x="620" y="424" type="curve" smooth="yes"/>
      <point x="620" y="755" type="line"/>
      <point x="964" y="755" type="line"/>
      <point x="964" y="429" type="line" smooth="yes"/>
      <point x="964" y="117"/>
      <point x="805" y="-19"/>
      <point x="525" y="-19" type="curve" smooth="yes"/>
      <point x="270" y="-19"/>
      <point x="91" y="151"/>
      <point x="91" y="440" type="curve" smooth="yes"/>
    </contour>
  </outline>
</glyph>
<glyph name="D" format="1">
  <advance width="1083"/>
  <unicode hex="0044"/>
  <outline>
    <contour>
      <point x="115" y="1760" type="line"/>
      <point x="599" y="1760" type="line" smooth="yes"/>
      <point x="854" y="1760"/>
      <point x="989" y="1615"/>
      <point x="989" y="1344" type="curve" smooth="yes"/>
      <point x="990" y="521" type="line" smooth="yes"/>
      <point x="990" y="188"/>
      <point x="880" y="0"/>
      <point x="587" y="0" type="curve" smooth="yes"/>
      <point x="115" y="0" type="line"/>
    </contour>
    <contour>
      <point x="635" y="1320" type="line"/>
      <point x="635" y="1444"/>
      <point x="612" y="1496"/>
      <point x="511" y="1496" type="curve" smooth="yes"/>
      <point x="469" y="1496" type="line"/>
      <point x="469" y="265" type="line"/>
      <point x="532" y="265" type="line" smooth="yes"/>
      <point x="601" y="265"/>
      <point x="637" y="297"/>
      <point x="637" y="370" type="curve" smooth="yes"/>
    </contour>
  </outline>
</glyph>
<glyph name="E" format="1">
  <advance width="862"/>
  <unicode hex="0045"/>
  <outline>
    <contour>
      <point x="115" y="1760" type="line"/>
      <point x="794" y="1760" type="line"/>
      <point x="794" y="1447" type="line"/>
      <point x="468" y="1447" type="line"/>
      <point x="468" y="1060" type="line"/>
      <point x="779" y="1060" type="line"/>
      <point x="779" y="759" type="line"/>
      <point x="468" y="759" type="line"/>
      <point x="468" y="313" type="line"/>
      <point x="817" y="313" type="line"/>
      <point x="817" y="0" type="line"/>
      <point x="115" y="0" type="line"/>
    </contour>
  </outline>
</glyph>
<glyph name="F" format="1">
  <advance width="852"/>
  <unicode hex="0046"/>
  <outline>
    <contour>
      <point x="115" y="1760" type="line"/>
      <point x="822" y="1760" type="line"/>
      <point x="822" y="1444" type="line"/>
      <point x="469" y="1444" type="line"/>
      <point x="469" y="1098" type="line"/>
      <point x="792" y="1098" type="line"/>
      <point x="792" y="782" type="line"/>
      <point x="469" y="782" type="line"/>
      <point x="469" y="0" type="line"/>
      <point x="115" y="0" type="line"/>
    </contour>
  </outline>
</glyph>
<glyph name="G" format="1">
  <advance width="1084"/>
  <unicode hex="0047"/>
  <outline>
    <contour>
      <point x="91" y="1305" type="line"/>
      <point x="91" y="1630"/>
      <point x="259" y="1779"/>
      <point x="546" y="1779" type="curve" smooth="yes"/>
      <point x="879" y="1779"/>
      <point x="973" y="1623"/>
      <point x="973" y="1287" type="curve" smooth="yes"/>
      <point x="973" y="1177" type="line"/>
      <point x="654" y="1177" type="line"/>
      <point x="654" y="1299" type="line" smooth="yes"/>
      <point x="654" y="1439"/>
      <point x="624" y="1473"/>
      <point x="556" y="1473" type="curve" smooth="yes"/>
      <point x="475" y="1473"/>
      <point x="448" y="1431"/>
      <point x="448" y="1297" type="curve" smooth="yes"/>
      <point x="448" y="502" type="line" smooth="yes"/>
      <point x="448" y="349"/>
      <point x="468" y="286"/>
      <point x="550" y="286" type="curve" smooth="yes"/>
      <point x="633" y="286"/>
      <point x="678" y="352"/>
      <point x="678" y="521" type="curve" smooth="yes"/>
      <point x="678" y="769" type="line"/>
      <point x="554" y="769" type="line"/>
      <point x="554" y="1012" type="line"/>
      <point x="973" y="1012" type="line"/>
      <point x="973" y="0" type="line"/>
      <point x="838" y="0" type="line"/>
      <point x="779" y="224" type="line"/>
      <point x="762" y="73"/>
      <point x="623" y="-19"/>
      <point x="493" y="-19" type="curve" smooth="yes"/>
      <point x="270" y="-19"/>
      <point x="91" y="139"/>
      <point x="91" y="503" type="curve" smooth="yes"/>
    </contour>
  </outline>
</glyph>
<glyph name="H" format="1">
  <advance width="1118"/>
  <unicode hex="0048"/>
  <outline>
    <contour>
      <point x="650" y="1760" type="line"/>
      <point x="1002" y="1760" type="line"/>
      <point x="1002" y="0" type="line"/>
      <point x="650" y="0" type="line"/>
      <point x="650" y="790" type="line"/>
      <point x="468" y="790" type="line"/>
      <point x="468" y="0" type="line"/>
      <point x="115" y="0" type="line"/>
      <point x="115" y="1760" type="line"/>
      <point x="468" y="1760" type="line"/>
      <point x="468" y="1105" type="line"/>
      <point x="650" y="1105" type="line"/>
    </contour>
  </outline>
</glyph>
<glyph name="J" format="1">
  <advance width="1043"/>
  <unicode hex="004A"/>
  <outline>
    <contour>
      <point x="570" y="1760" type="line"/>
      <point x="923" y="1760" type="line"/>
      <point x="923" y="438" type="line" smooth="yes"/>
      <point x="923" y="159"/>
      <point x="746" y="-19"/>
      <point x="499" y="-19" type="curve" smooth="yes"/>
      <point x="259" y="-19"/>
      <point x="72" y="125"/>
      <point x="72" y="389" type="curve" smooth="yes"/>
      <point x="72" y="819" type="line"/>
      <point x="410" y="819" type="line"/>
      <point x="410" y="402" type="line" smooth="yes"/>
      <point x="410" y="337"/>
      <point x="433" y="286"/>
      <point x="488" y="286" type="curve" smooth="yes"/>
      <point x="546" y="286"/>
      <point x="570" y="330"/>
      <point x="570" y="418" type="curve" smooth="yes"/>
    </contour>
  </outline>
</glyph>
<glyph name="K" format="1">
  <advance width="1081"/>
  <unicode hex="004B"/>
  <outline>
    <contour>
      <point x="674" y="1760" type="line"/>
      <point x="1046" y="1760" type="line"/>
      <point x="804" y="893" type="line"/>
      <point x="1069" y="0" type="line"/>
      <point x="693" y="0" type="line"/>
      <point x="470" y="794" type="line"/>
      <point x="470" y="0" type="line"/>
      <point x="115" y="0" type="line"/>
      <point x="115" y="1760" type="line"/>
      <point x="468" y="1760" type="line"/>
      <point x="468" y="990" type="line"/>
    </contour>
  </outline>
</glyph>
<glyph name="L" format="1">
  <advance width="842"/>
  <unicode hex="004C"/>
  <outline>
    <contour>
      <point x="115" y="1760" type="line"/>
      <point x="468" y="1760" type="line"/>
      <point x="468" y="307" type="line"/>
      <point x="826" y="307" type="line"/>
      <point x="826" y="0" type="line"/>
      <point x="115" y="0" type="line"/>
    </contour>
  </outline>
</glyph>
<glyph name="M" format="1">
  <advance width="1587"/>
  <unicode hex="004D"/>
  <outline>
    <contour>
      <point x="1001" y="1760" type="line"/>
      <point x="1469" y="1760" type="line"/>
      <point x="1469" y="0" type="line"/>
      <point x="1144" y="0" type="line"/>
      <point x="1144" y="642" type="line"/>
      <point x="1145" y="1167" type="line"/>
      <point x="946" y="19" type="line"/>
      <point x="643" y="19" type="line"/>
      <point x="437" y="1167" type="line"/>
      <point x="437" y="642" type="line"/>
      <point x="437" y="0" type="line"/>
      <point x="115" y="0" type="line"/>
      <point x="115" y="1760" type="line"/>
      <point x="580" y="1760" type="line"/>
      <point x="799" y="642" type="line"/>
    </contour>
  </outline>
</glyph>
<glyph name="N" format="1">
  <advance width="1145"/>
  <unicode hex="004E"/>
  <outline>
    <contour>
      <point x="708" y="1760" type="line"/>
      <point x="1030" y="1760" type="line"/>
      <point x="1030" y="0" type="line"/>
      <point x="787" y="0" type="line"/>
      <point x="421" y="934" type="line"/>
      <point x="440" y="447" type="line"/>
      <point x="440" y="0" type="line"/>
      <point x="115" y="0" type="line"/>
      <point x="115" y="1760" type="line"/>
      <point x="400" y="1760" type="line"/>
      <point x="725" y="901" type="line"/>
      <point x="708" y="1340" type="line"/>
    </contour>
  </outline>
</glyph>
<glyph name="O" format="1">
  <advance width="1075"/>
  <unicode hex="004F"/>
  <outline>
    <contour>
      <point x="91" y="1318" type="line"/>
      <point x="91" y="1621"/>
      <point x="259" y="1780"/>
      <point x="541" y="1780" type="curve" smooth="yes"/>
      <point x="823" y="1780"/>
      <point x="982" y="1621"/>
      <point x="982" y="1318" type="curve" smooth="yes"/>
      <point x="982" y="473" type="line" smooth="yes"/>
      <point x="982" y="158"/>
      <point x="829" y="-20"/>
      <point x="541" y="-20" type="curve" smooth="yes"/>
      <point x="253" y="-20"/>
      <point x="91" y="158"/>
      <point x="91" y="473" type="curve" smooth="yes"/>
    </contour>
    <contour>
      <point x="627" y="1330" type="line"/>
      <point x="627" y="1402"/>
      <point x="612" y="1473"/>
      <point x="541" y="1473" type="curve" smooth="yes"/>
      <point x="470" y="1473"/>
      <point x="448" y="1413"/>
      <point x="448" y="1331" type="curve" smooth="yes"/>
      <point x="448" y="468" type="line" smooth="yes"/>
      <point x="448" y="368"/>
      <point x="455" y="287"/>
      <point x="541" y="287" type="curve" smooth="yes"/>
      <point x="619" y="287"/>
      <point x="627" y="375"/>
      <point x="627" y="468" type="curve" smooth="yes"/>
    </contour>
  </outline>
</glyph>
<glyph name="P" format="1">
  <advance width="1011"/>
  <unicode hex="0050"/>
  <outline>
    <contour>
      <point x="115" y="1760" type="line"/>
      <point x="589" y="1760" type="line" smooth="yes"/>
      <point x="867" y="1760"/>
      <point x="980" y="1614"/>
      <point x="989" y="1275" type="curve" smooth="yes"/>
      <point x="987" y="1279"/>
      <point x="987" y="1220"/>
      <point x="987" y="1224" type="curve" smooth="yes"/>
      <point x="987" y="903"/>
      <point x="901" y="698"/>
      <point x="610" y="698" type="curve" smooth="yes"/>
      <point x="468" y="698" type="line"/>
      <point x="468" y="0" type="line"/>
      <point x="115" y="0" type="line"/>
    </contour>
    <contour>
      <point x="635" y="1265" type="line"/>
      <point x="633" y="1408"/>
      <point x="617" y="1496"/>
      <point x="511" y="1496" type="curve" smooth="yes"/>
      <point x="468" y="1496" type="line"/>
      <point x="468" y="987" type="line"/>
      <point x="513" y="987" type="line" smooth="yes"/>
      <point x="627" y="987"/>
      <point x="635" y="1055"/>
      <point x="635" y="1231" type="curve" smooth="yes"/>
    </contour>
  </outline>
</glyph>
<glyph name="Q" format="1">
  <advance width="1075"/>
  <unicode hex="0051"/>
  <outline>
    <contour>
      <point x="482" y="3" type="line"/>
      <point x="695" y="130" type="line"/>
      <point x="957" y="-178" type="line"/>
      <point x="784" y="-324" type="line"/>
    </contour>
    <component base="O"/>
  </outline>
</glyph>
<glyph name="R" format="1">
  <advance width="1065"/>
  <unicode hex="0052"/>
  <outline>
    <contour>
      <point x="115" y="1760" type="line"/>
      <point x="661" y="1760" type="line" smooth="yes"/>
      <point x="933" y="1760"/>
      <point x="981" y="1569"/>
      <point x="981" y="1270" type="curve" smooth="yes"/>
      <point x="981" y="1077"/>
      <point x="955" y="982"/>
      <point x="822" y="938" type="curve"/>
      <point x="934" y="916"/>
      <point x="986" y="804"/>
      <point x="986" y="649" type="curve" smooth="yes"/>
      <point x="986" y="646"/>
      <point x="986" y="1"/>
      <point x="988" y="0" type="curve"/>
      <point x="634" y="0" type="line"/>
      <point x="634" y="1"/>
      <point x="633" y="669"/>
      <point x="633" y="684" type="curve" smooth="yes"/>
      <point x="633" y="781"/>
      <point x="582" y="801"/>
      <point x="503" y="805" type="curve"/>
      <point x="491" y="805"/>
      <point x="482" y="805"/>
      <point x="468" y="805" type="curve"/>
      <point x="468" y="0" type="line"/>
      <point x="115" y="0" type="line"/>
    </contour>
    <contour>
      <point x="633" y="1315" type="line"/>
      <point x="633" y="1448"/>
      <point x="623" y="1496"/>
      <point x="507" y="1496" type="curve" smooth="yes"/>
      <point x="470" y="1496" type="line"/>
      <point x="470" y="1090" type="line"/>
      <point x="543" y="1090" type="line" smooth="yes"/>
      <point x="618" y="1090"/>
      <point x="633" y="1149"/>
      <point x="633" y="1305" type="curve" smooth="yes"/>
    </contour>
  </outline>
</glyph>
<glyph name="S" format="1">
  <advance width="942"/>
  <unicode hex="0053"/>
  <outline>
    <contour>
      <point x="64" y="1354" type="curve" smooth="yes"/>
      <point x="64" y="1650"/>
      <point x="185" y="1780"/>
      <point x="477" y="1780" type="curve" smooth="yes"/>
      <point x="756" y="1780"/>
      <point x="871" y="1645"/>
      <point x="871" y="1336" type="curve" smooth="yes"/>
      <point x="871" y="1220" type="line"/>
      <point x="556" y="1220" type="line"/>
      <point x="556" y="1357" type="line" smooth="yes"/>
      <point x="556" y="1444"/>
      <point x="532" y="1481"/>
      <point x="473" y="1481" type="curve" smooth="yes"/>
      <point x="415" y="1481"/>
      <point x="389" y="1451"/>
      <point x="389" y="1384" type="curve" smooth="yes"/>
      <point x="389" y="1314"/>
      <point x="419" y="1254"/>
      <point x="485" y="1180" type="curve"/>
      <point x="664" y="981" type="line" smooth="yes"/>
      <point x="821" y="806"/>
      <point x="890" y="655"/>
      <point x="890" y="482" type="curve" smooth="yes"/>
      <point x="890" y="133"/>
      <point x="769" y="-20"/>
      <point x="486" y="-20" type="curve" smooth="yes"/>
      <point x="184" y="-20"/>
      <point x="56" y="131"/>
      <point x="56" y="476" type="curve" smooth="yes"/>
      <point x="56" y="613" type="line"/>
      <point x="383" y="613" type="line"/>
      <point x="383" y="439" type="line" smooth="yes"/>
      <point x="383" y="328"/>
      <point x="410" y="281"/>
      <point x="472" y="281" type="curve" smooth="yes"/>
      <point x="532" y="281"/>
      <point x="558" y="323"/>
      <point x="558" y="419" type="curve" smooth="yes"/>
      <point x="558" y="517"/>
      <point x="506" y="614"/>
      <point x="383" y="749" type="curve" smooth="yes"/>
      <point x="232" y="910" type="line" smooth="yes"/>
      <point x="115" y="1035"/>
      <point x="64" y="1168"/>
    </contour>
  </outline>
</glyph>
<glyph name="T" format="1">
  <advance width="815"/>
  <unicode hex="0054"/>
  <outline>
    <contour>
      <point x="10" y="1760" type="line"/>
      <point x="806" y="1760" type="line"/>
      <point x="806" y="1445" type="line"/>
      <point x="584" y="1445" type="line"/>
      <point x="584" y="0" type="line"/>
      <point x="233" y="0" type="line"/>
      <point x="233" y="1445" type="line"/>
      <point x="10" y="1445" type="line"/>
    </contour>
  </outline>
</glyph>
<glyph name="U" format="1">
  <advance width="1097"/>
  <unicode hex="0055"/>
  <outline>
    <contour>
      <point x="638" y="1762" type="line"/>
      <point x="992" y="1762" type="line"/>
      <point x="992" y="452" type="line" smooth="yes"/>
      <point x="992" y="132"/>
      <point x="840" y="-19"/>
      <point x="548" y="-19" type="curve" smooth="yes"/>
      <point x="256" y="-19"/>
      <point x="104" y="132"/>
      <point x="104" y="452" type="curve" smooth="yes"/>
      <point x="104" y="1762" type="line"/>
      <point x="456" y="1762" type="line"/>
      <point x="456" y="457" type="line" smooth="yes"/>
      <point x="456" y="365"/>
      <point x="464" y="285"/>
      <point x="546" y="285" type="curve" smooth="yes"/>
      <point x="630" y="285"/>
      <point x="638" y="364"/>
      <point x="638" y="458" type="curve" smooth="yes"/>
    </contour>
  </outline>
</glyph>
<glyph name="V" format="1">
  <advance width="996"/>
  <unicode hex="0056"/>
  <outline>
    <contour>
      <point x="637" y="1760" type="line"/>
      <point x="963" y="1760" type="line"/>
      <point x="734" y="0" type="line"/>
      <point x="278" y="0" type="line"/>
      <point x="33" y="1760" type="line"/>
      <point x="368" y="1760" type="line"/>
      <point x="481" y="896" type="line"/>
      <point x="512" y="467" type="line"/>
      <point x="523" y="467" type="line"/>
      <point x="548" y="896" type="line"/>
    </contour>
  </outline>
</glyph>
<glyph name="W" format="1">
  <advance width="1388"/>
  <unicode hex="0057"/>
  <outline>
    <contour>
      <point x="1042" y="1760" type="line"/>
      <point x="1354" y="1760" type="line"/>
      <point x="1160" y="0" type="line"/>
      <point x="807" y="0" type="line"/>
      <point x="696" y="991" type="line"/>
      <point x="585" y="0" type="line"/>
      <point x="225" y="0" type="line"/>
      <point x="34" y="1760" type="line"/>
      <point x="342" y="1760" type="line"/>
      <point x="442" y="638" type="line"/>
      <point x="556" y="1760" type="line"/>
      <point x="837" y="1760" type="line"/>
      <point x="946" y="638" type="line"/>
    </contour>
  </outline>
</glyph>
<glyph name="X" format="1">
  <advance width="1038"/>
  <unicode hex="0058"/>
  <outline>
    <contour>
      <point x="622" y="1760" type="line"/>
      <point x="963" y="1760" type="line"/>
      <point x="667" y="862" type="line"/>
      <point x="1002" y="0" type="line"/>
      <point x="698" y="0" type="line"/>
      <point x="519" y="448" type="line"/>
      <point x="392" y="0" type="line"/>
      <point x="36" y="0" type="line"/>
      <point x="333" y="961" type="line"/>
      <point x="27" y="1760" type="line"/>
      <point x="316" y="1760" type="line"/>
      <point x="495" y="1324" type="line"/>
    </contour>
  </outline>
</glyph>
<glyph name="Y" format="1">
  <advance width="950"/>
  <unicode hex="0059"/>
  <outline>
    <contour>
      <point x="608" y="1760" type="line"/>
      <point x="930" y="1760" type="line"/>
      <point x="653" y="653" type="line"/>
      <point x="653" y="0" type="line"/>
      <point x="300" y="0" type="line"/>
      <point x="300" y="653" type="line"/>
      <point x="21" y="1760" type="line"/>
      <point x="347" y="1760" type="line"/>
      <point x="480" y="1181" type="line"/>
      <point x="484" y="1181" type="line"/>
    </contour>
  </outline>
</glyph>
<glyph name="Z" format="1">
  <advance width="830"/>
  <unicode hex="005A"/>
  <outline>
    <contour>
      <point x="87" y="1760" type="line"/>
      <point x="796" y="1760" type="line"/>
      <point x="796" y="1461" type="line"/>
      <point x="428" y="313" type="line"/>
      <point x="788" y="313" type="line"/>
      <point x="788" y="0" type="line"/>
      <point x="54" y="0" type="line"/>
      <point x="54" y="320" type="line"/>
      <point x="422" y="1447" type="line"/>
      <point x="87" y="1447" type="line"/>
    </contour>
  </outline>
</glyph>
<glyph name="bracketleft" format="1">
  <advance width="952"/>
  <unicode hex="005B"/>
  <outline>
    <contour>
      <point x="227" y="1761" type="line"/>
      <point x="776" y="1761" type="line"/>
      <point x="776" y="1484" type="line"/>
      <point x="577" y="1484" type="line"/>
      <point x="577" y="443" type="line"/>
      <point x="776" y="443" type="line"/>
      <point x="776" y="166" type="line"/>
      <point x="227" y="166" type="line"/>
    </contour>
  </outline>
</glyph>
<glyph name="backslash" format="1">
  <advance width="1051"/>
  <unicode hex="005C"/>
  <outline>
    <contour>
      <point x="129" y="1761" type="line"/>
      <point x="445" y="1761" type="line"/>
      <point x="855" y="0" type="line"/>
      <point x="540" y="0" type="line"/>
    </contour>
  </outline>
</glyph>
<glyph name="bracketright" format="1">
  <advance width="952"/>
  <unicode hex="005D"/>
  <outline>
    <contour>
      <point x="775" y="1761" type="line"/>
      <point x="775" y="166" type="line"/>
      <point x="226" y="166" type="line"/>
      <point x="226" y="443" type="line"/>
      <point x="426" y="443" type="line"/>
      <point x="426" y="1484" type="line"/>
      <point x="226" y="1484" type="line"/>
      <point x="226" y="1761" type="line"/>
    </contour>
  </outline>
</glyph>
<glyph name="asciicircum" format="1">
  <advance width="1184"/>
  <unicode hex="005E"/>
  <outline>
    <contour>
      <point x="391" y="1138" type="line"/>
      <point x="790" y="1138" type="line"/>
      <point x="1031" y="215" type="line"/>
      <point x="699" y="215" type="line"/>
      <point x="591" y="856" type="line"/>
      <point x="483" y="215" type="line"/>
      <point x="150" y="215" type="line"/>
    </contour>
  </outline>
</glyph>
<glyph name="underscore" format="1">
  <advance width="748"/>
  <unicode hex="005F"/>
  <outline>
    <contour>
      <point x="48" y="-3" type="line"/>
      <point x="699" y="-3" type="line"/>
      <point x="699" y="-229" type="line"/>
      <point x="48" y="-229" type="line"/>
    </contour>
  </outline>
</glyph>
<glyph name="grave" format="1">
  <advance width="650"/>
  <unicode hex="0060"/>
  <outline>
    <contour>
      <point x="727" y="100" type="line"/>
      <point x="597" y="242" type="line"/>
      <point x="-234" y="466" type="line"/>
      <point x="35" y="584" type="line"/>
    </contour>
  </outline>
</glyph>
<glyph name="a" format="1">
  <advance width="1064"/>
  <unicode hex="0061"/>
  <outline>
    <contour>
      <point x="602" y="796" type="line"/>
      <point x="508" y="754"/>
      <point x="442" y="696"/>
      <point x="442" y="585" type="curve" smooth="yes"/>
      <point x="442" y="377" type="line" smooth="yes"/>
      <point x="442" y="283"/>
      <point x="469" y="239"/>
      <point x="523" y="239" type="curve" smooth="yes"/>
      <point x="581" y="239"/>
      <point x="601" y="299"/>
      <point x="602" y="356" type="curve"/>
    </contour>
    <contour>
      <point x="106" y="1102" type="line"/>
      <point x="106" y="1401"/>
      <point x="236" y="1518"/>
      <point x="541" y="1518" type="curve" smooth="yes"/>
      <point x="783" y="1518"/>
      <point x="961" y="1412"/>
      <point x="961" y="1164" type="curve" smooth="yes"/>
      <point x="961" y="0" type="line"/>
      <point x="610" y="0" type="line"/>
      <point x="610" y="175" type="line"/>
      <point x="575" y="55"/>
      <point x="489" y="-18"/>
      <point x="384" y="-18" type="curve" smooth="yes"/>
      <point x="145" y="-18"/>
      <point x="88" y="162"/>
      <point x="84" y="406" type="curve"/>
      <point x="84" y="433" type="line" smooth="yes"/>
      <point x="84" y="829"/>
      <point x="278" y="860"/>
      <point x="602" y="970" type="curve"/>
      <point x="602" y="1121" type="line" smooth="yes"/>
      <point x="602" y="1217"/>
      <point x="587" y="1244"/>
      <point x="527" y="1244" type="curve" smooth="yes"/>
      <point x="468" y="1244"/>
      <point x="448" y="1203"/>
      <point x="448" y="1142" type="curve" smooth="yes"/>
      <point x="448" y="1054" type="line"/>
      <point x="106" y="1054" type="line"/>
    </contour>
  </outline>
</glyph>
<glyph name="b" format="1">
  <advance width="1078"/>
  <unicode hex="0062"/>
  <outline>
    <contour>
      <point x="639" y="1081" type="line"/>
      <point x="639" y="1174"/>
      <point x="630" y="1246"/>
      <point x="558" y="1246" type="curve" smooth="yes"/>
      <point x="485" y="1246"/>
      <point x="464" y="1182"/>
      <point x="464" y="1085" type="curve" smooth="yes"/>
      <point x="464" y="453" type="line" smooth="yes"/>
      <point x="464" y="341"/>
      <point x="476" y="257"/>
      <point x="559" y="257" type="curve"/>
      <point x="640" y="255"/>
      <point x="639" y="338"/>
      <point x="639" y="453" type="curve" smooth="yes"/>
    </contour>
    <contour>
      <point x="464" y="1407" type="line"/>
      <point x="503" y="1476"/>
      <point x="586" y="1516"/>
      <point x="648" y="1518" type="curve" smooth="yes"/>
      <point x="904" y="1528"/>
      <point x="988" y="1365"/>
      <point x="988" y="1109" type="curve" smooth="yes"/>
      <point x="988" y="394" type="line" smooth="yes"/>
      <point x="988" y="161"/>
      <point x="899" y="-18"/>
      <point x="677" y="-18" type="curve" smooth="yes"/>
      <point x="579" y="-18"/>
      <point x="506" y="39"/>
      <point x="464" y="159" type="curve"/>
      <point x="464" y="0" type="line"/>
      <point x="116" y="0" type="line"/>
      <point x="116" y="1769" type="line"/>
      <point x="464" y="1769" type="line"/>
    </contour>
  </outline>
</glyph>
<glyph name="c" format="1">
  <advance width="1023"/>
  <unicode hex="0063"/>
  <outline>
    <contour>
      <point x="91" y="956" type="line"/>
      <point x="91" y="1329"/>
      <point x="188" y="1518"/>
      <point x="543" y="1518" type="curve" smooth="yes"/>
      <point x="792" y="1518"/>
      <point x="947" y="1377"/>
      <point x="947" y="1132" type="curve" smooth="yes"/>
      <point x="947" y="883" type="line"/>
      <point x="616" y="883" type="line"/>
      <point x="616" y="1115" type="line" smooth="yes"/>
      <point x="616" y="1188"/>
      <point x="601" y="1244"/>
      <point x="531" y="1244" type="curve" smooth="yes"/>
      <point x="472" y="1244"/>
      <point x="442" y="1198"/>
      <point x="442" y="1114" type="curve" smooth="yes"/>
      <point x="442" y="385" type="line" smooth="yes"/>
      <point x="442" y="318"/>
      <point x="467" y="256"/>
      <point x="530" y="256" type="curve" smooth="yes"/>
      <point x="595" y="256"/>
      <point x="616" y="315"/>
      <point x="616" y="388" type="curve" smooth="yes"/>
      <point x="616" y="612" type="line"/>
      <point x="947" y="612" type="line"/>
      <point x="947" y="384" type="line" smooth="yes"/>
      <point x="947" y="134"/>
      <point x="794" y="-18"/>
      <point x="542" y="-18" type="curve" smooth="yes"/>
      <point x="210" y="-18"/>
      <point x="91" y="159"/>
      <point x="91" y="492" type="curve" smooth="yes"/>
    </contour>
  </outline>
</glyph>
<glyph name="d" format="1">
  <advance width="1080"/>
  <unicode hex="0064"/>
  <outline>
    <contour>
      <point x="622" y="1769" type="line"/>
      <point x="968" y="1769" type="line"/>
      <point x="968" y="0" type="line"/>
      <point x="622" y="0" type="line"/>
      <point x="622" y="157" type="line"/>
      <point x="582" y="51"/>
      <point x="518" y="-18"/>
      <point x="396" y="-18" type="curve" smooth="yes"/>
      <point x="121" y="-18"/>
      <point x="91" y="202"/>
      <point x="91" y="478" type="curve" smooth="yes"/>
      <point x="91" y="1150" type="line" smooth="yes"/>
      <point x="91" y="1355"/>
      <point x="197" y="1518"/>
      <point x="403" y="1518" type="curve" smooth="yes"/>
      <point x="498" y="1518"/>
      <point x="575" y="1483"/>
      <point x="622" y="1417" type="curve"/>
    </contour>
    <contour>
      <point x="623" y="1081" type="line"/>
      <point x="623" y="1159"/>
      <point x="607" y="1243"/>
      <point x="534" y="1243" type="curve"/>
      <point x="455" y="1245"/>
      <point x="442" y="1165"/>
      <point x="442" y="1081" type="curve" smooth="yes"/>
      <point x="442" y="449" type="line" smooth="yes"/>
      <point x="442" y="320"/>
      <point x="473" y="254"/>
      <point x="531" y="254" type="curve" smooth="yes"/>
      <point x="630" y="254"/>
      <point x="623" y="378"/>
      <point x="623" y="484" type="curve" smooth="yes"/>
    </contour>
  </outline>
</glyph>
<glyph name="e" format="1">
  <advance width="1035"/>
  <unicode hex="0065"/>
  <outline>
    <contour>
      <point x="91" y="1090" type="line"/>
      <point x="91" y="1367"/>
      <point x="257" y="1518"/>
      <point x="536" y="1518" type="curve" smooth="yes"/>
      <point x="823" y="1518"/>
      <point x="959" y="1375"/>
      <point x="959" y="1090" type="curve" smooth="yes"/>
      <point x="959" y="717" type="line"/>
      <point x="442" y="717" type="line"/>
      <point x="442" y="427" type="line" smooth="yes"/>
      <point x="442" y="342"/>
      <point x="447" y="256"/>
      <point x="530" y="256" type="curve" smooth="yes"/>
      <point x="617" y="256"/>
      <point x="614" y="339"/>
      <point x="614" y="431" type="curve" smooth="yes"/>
      <point x="614" y="579" type="line"/>
      <point x="960" y="579" type="line"/>
      <point x="960" y="477" type="line" smooth="yes"/>
      <point x="960" y="141"/>
      <point x="857" y="-18"/>
      <point x="518" y="-18" type="curve" smooth="yes"/>
      <point x="198" y="-18"/>
      <point x="91" y="171"/>
      <point x="91" y="491" type="curve" smooth="yes"/>
    </contour>
    <contour>
      <point x="614" y="1087" type="line"/>
      <point x="614" y="1197"/>
      <point x="588" y="1254"/>
      <point x="531" y="1254" type="curve" smooth="yes"/>
      <point x="443" y="1254"/>
      <point x="441" y="1173"/>
      <point x="441" y="1080" type="curve" smooth="yes"/>
      <point x="441" y="894" type="line"/>
      <point x="614" y="894" type="line"/>
    </contour>
  </outline>
</glyph>
<glyph name="f" format="1">
  <advance width="672"/>
  <unicode hex="0066"/>
  <outline>
    <contour>
      <point x="157" y="1525" type="line"/>
      <point x="157" y="1686"/>
      <point x="273" y="1781"/>
      <point x="434" y="1781" type="curve" smooth="yes"/>
      <point x="520" y="1781"/>
      <point x="591" y="1762"/>
      <point x="621" y="1751" type="curve"/>
      <point x="621" y="1553" type="line"/>
      <point x="606" y="1554"/>
      <point x="592" y="1554"/>
      <point x="576" y="1554" type="curve" smooth="yes"/>
      <point x="539" y="1554"/>
      <point x="502" y="1543"/>
      <point x="502" y="1494" type="curve" smooth="yes"/>
      <point x="502" y="1440" type="line"/>
      <point x="621" y="1440" type="line"/>
      <point x="621" y="1193" type="line"/>
      <point x="502" y="1193" type="line"/>
      <point x="502" y="0" type="line"/>
      <point x="154" y="0" type="line"/>
      <point x="154" y="1193" type="line"/>
      <point x="56" y="1193" type="line"/>
      <point x="56" y="1440" type="line"/>
      <point x="157" y="1440" type="line"/>
    </contour>
  </outline>
</glyph>
<glyph name="g" format="1">
  <advance width="1074"/>
  <unicode hex="0067"/>
  <outline>
    <contour>
      <point x="103" y="1102" type="line"/>
      <point x="103" y="1345"/>
      <point x="164" y="1519"/>
      <point x="398" y="1518" type="curve" smooth="yes"/>
      <point x="526" y="1519"/>
      <point x="598" y="1446"/>
      <point x="624" y="1335" type="curve"/>
      <point x="624" y="1500" type="line"/>
      <point x="972" y="1500" type="line"/>
      <point x="972" y="247" type="line" smooth="yes"/>
      <point x="972" y="-82"/>
      <point x="834" y="-220"/>
      <point x="501" y="-219" type="curve" smooth="yes"/>
      <point x="295" y="-221"/>
      <point x="191" y="-194"/>
      <point x="74" y="-97" type="curve"/>
      <point x="193" y="107" type="line"/>
      <point x="281" y="55"/>
      <point x="367" y="28"/>
      <point x="455" y="28" type="curve" smooth="yes"/>
      <point x="567" y="28"/>
      <point x="624" y="107"/>
      <point x="624" y="226" type="curve" smooth="yes"/>
      <point x="624" y="312" type="line"/>
      <point x="594" y="210"/>
      <point x="517" y="171"/>
      <point x="397" y="171" type="curve" smooth="yes"/>
      <point x="181" y="171"/>
      <point x="103" y="328"/>
      <point x="103" y="546" type="curve" smooth="yes"/>
    </contour>
    <contour>
      <point x="624" y="1113" type="line"/>
      <point x="624" y="1176"/>
      <point x="591" y="1244"/>
      <point x="535" y="1244" type="curve" smooth="yes"/>
      <point x="463" y="1244"/>
      <point x="454" y="1185"/>
      <point x="454" y="1113" type="curve" smooth="yes"/>
      <point x="454" y="582" type="line" smooth="yes"/>
      <point x="454" y="504"/>
      <point x="461" y="425"/>
      <point x="538" y="425" type="curve" smooth="yes"/>
      <point x="596" y="425"/>
      <point x="624" y="476"/>
      <point x="624" y="584" type="curve" smooth="yes"/>
    </contour>
  </outline>
</glyph>
<glyph name="h" format="1">
  <advance width="1091"/>
  <unicode hex="0068"/>
  <outline>
    <contour>
      <point x="121" y="1769" type="line"/>
      <point x="469" y="1769" type="line"/>
      <point x="469" y="1310" type="line"/>
      <point x="495" y="1424"/>
      <point x="567" y="1517"/>
      <point x="694" y="1517" type="curve" smooth="yes"/>
      <point x="901" y="1517"/>
      <point x="990" y="1380"/>
      <point x="990" y="1160" type="curve" smooth="yes"/>
      <point x="990" y="0" type="line"/>
      <point x="644" y="0" type="line"/>
      <point x="644" y="1124" type="line" smooth="yes"/>
      <point x="644" y="1184"/>
      <point x="621" y="1244"/>
      <point x="562" y="1244" type="curve" smooth="yes"/>
      <point x="479" y="1244"/>
      <point x="469" y="1147"/>
      <point x="469" y="1061" type="curve" smooth="yes"/>
      <point x="469" y="0" type="line"/>
      <point x="121" y="0" type="line"/>
    </contour>
  </outline>
</glyph>
<glyph name="i" format="1">
  <advance width="580"/>
  <unicode hex="0069"/>
  <outline>
    <contour>
      <point x="123" y="1500" type="line"/>
      <point x="471" y="1500" type="line"/>
      <point x="471" y="0" type="line"/>
      <point x="123" y="0" type="line"/>
    </contour>
    <contour>
      <point x="115" y="1926" type="line"/>
      <point x="467" y="1926" type="line"/>
      <point x="467" y="1638" type="line"/>
      <point x="115" y="1638" type="line"/>
    </contour>
  </outline>
</glyph>
<glyph name="j" format="1">
  <advance width="606"/>
  <unicode hex="006A"/>
  <outline>
    <contour>
      <point x="165" y="1500" type="line"/>
      <point x="513" y="1500" type="line"/>
      <point x="513" y="161" type="line" smooth="yes"/>
      <point x="513" y="-51"/>
      <point x="438" y="-176"/>
      <point x="238" y="-178" type="curve"/>
      <point x="160" y="-179"/>
      <point x="81" y="-170"/>
      <point x="57" y="-152" type="curve"/>
      <point x="57" y="85" type="line"/>
      <point x="64" y="82"/>
      <point x="76" y="82"/>
      <point x="84" y="84" type="curve" smooth="yes"/>
      <point x="145" y="83"/>
      <point x="165" y="114"/>
      <point x="165" y="151" type="curve" smooth="yes"/>
    </contour>
    <contour>
      <point x="158" y="1926" type="line"/>
      <point x="510" y="1926" type="line"/>
      <point x="510" y="1638" type="line"/>
      <point x="158" y="1638" type="line"/>
    </contour>
  </outline>
</glyph>
<glyph name="k" format="1">
  <advance width="1051"/>
  <unicode hex="006B"/>
  <outline>
    <contour>
      <point x="116" y="1769" type="line"/>
      <point x="464" y="1769" type="line"/>
      <point x="464" y="861" type="line"/>
      <point x="666" y="1500" type="line"/>
      <point x="1021" y="1500" type="line"/>
      <point x="769" y="766" type="line"/>
      <point x="1038" y="0" type="line"/>
      <point x="686" y="0" type="line"/>
      <point x="464" y="689" type="line"/>
      <point x="464" y="0" type="line"/>
      <point x="116" y="0" type="line"/>
    </contour>
  </outline>
</glyph>
<glyph name="n" format="1">
  <advance width="1092"/>
  <unicode hex="006E"/>
  <outline>
    <contour>
      <point x="462" y="1310" type="line"/>
      <point x="488" y="1424"/>
      <point x="574" y="1517"/>
      <point x="702" y="1517" type="curve" smooth="yes"/>
      <point x="907" y="1517"/>
      <point x="991" y="1380"/>
      <point x="991" y="1160" type="curve" smooth="yes"/>
      <point x="991" y="0" type="line"/>
      <point x="643" y="0" type="line"/>
      <point x="643" y="1123" type="line" smooth="yes"/>
      <point x="643" y="1184"/>
      <point x="618" y="1244"/>
      <point x="558" y="1244" type="curve" smooth="yes"/>
      <point x="475" y="1244"/>
      <point x="462" y="1145"/>
      <point x="462" y="1061" type="curve" smooth="yes"/>
      <point x="462" y="0" type="line"/>
      <point x="114" y="0" type="line"/>
      <point x="114" y="1500" type="line"/>
      <point x="462" y="1500" type="line"/>
    </contour>
  </outline>
</glyph>
<glyph name="o" format="1">
  <advance width="1048"/>
  <unicode hex="006F"/>
  <outline>
    <contour>
      <point x="91" y="1051" type="line"/>
      <point x="91" y="1333"/>
      <point x="244" y="1518"/>
      <point x="523" y="1518" type="curve" smooth="yes"/>
      <point x="804" y="1518"/>
      <point x="957" y="1334"/>
      <point x="957" y="1051" type="curve" smooth="yes"/>
      <point x="957" y="448" type="line" smooth="yes"/>
      <point x="957" y="142"/>
      <point x="825" y="-18"/>
      <point x="523" y="-18" type="curve" smooth="yes"/>
      <point x="226" y="-18"/>
      <point x="91" y="137"/>
      <point x="91" y="448" type="curve" smooth="yes"/>
    </contour>
    <contour>
      <point x="605" y="1106" type="line"/>
      <point x="605" y="1197"/>
      <point x="582" y="1244"/>
      <point x="523" y="1244" type="curve" smooth="yes"/>
      <point x="465" y="1244"/>
      <point x="442" y="1197"/>
      <point x="442" y="1106" type="curve" smooth="yes"/>
      <point x="442" y="377" type="line" smooth="yes"/>
      <point x="442" y="306"/>
      <point x="463" y="256"/>
      <point x="523" y="256" type="curve" smooth="yes"/>
      <point x="587" y="256"/>
      <point x="605" y="306"/>
      <point x="605" y="377" type="curve" smooth="yes"/>
    </contour>
  </outline>
</glyph>
<glyph name="p" format="1">
  <advance width="1080"/>
  <unicode hex="0070"/>
  <outline>
    <contour>
      <point x="459" y="1351" type="line"/>
      <point x="497" y="1449"/>
      <point x="598" y="1518"/>
      <point x="686" y="1518" type="curve" smooth="yes"/>
      <point x="936" y="1518"/>
      <point x="989" y="1322"/>
      <point x="989" y="1073" type="curve" smooth="yes"/>
      <point x="989" y="520" type="line" smooth="yes"/>
      <point x="989" y="224"/>
      <point x="963" y="-18"/>
      <point x="670" y="-18" type="curve" smooth="yes"/>
      <point x="581" y="-18"/>
      <point x="506" y="27"/>
      <point x="459" y="79" type="curve"/>
      <point x="459" y="-300" type="line"/>
      <point x="111" y="-300" type="line"/>
      <point x="111" y="1500" type="line"/>
      <point x="459" y="1500" type="line"/>
    </contour>
    <contour>
      <point x="638" y="1080" type="line"/>
      <point x="638" y="1162"/>
      <point x="629" y="1246"/>
      <point x="551" y="1246" type="curve" smooth="yes"/>
      <point x="493" y="1246"/>
      <point x="459" y="1194"/>
      <point x="459" y="1083" type="curve" smooth="yes"/>
      <point x="459" y="422" type="line" smooth="yes"/>
      <point x="459" y="331"/>
      <point x="475" y="257"/>
      <point x="551" y="257" type="curve"/>
      <point x="627" y="255"/>
      <point x="638" y="338"/>
      <point x="638" y="438" type="curve" smooth="yes"/>
    </contour>
  </outline>
</glyph>
<glyph name="q" format="1">
  <advance width="1073"/>
  <unicode hex="0071"/>
  <outline>
    <contour>
      <point x="91" y="1073" type="line"/>
      <point x="91" y="1321"/>
      <point x="175" y="1518"/>
      <point x="401" y="1518" type="curve" smooth="yes"/>
      <point x="490" y="1518"/>
      <point x="577" y="1473"/>
      <point x="614" y="1390" type="curve"/>
      <point x="614" y="1500" type="line"/>
      <point x="962" y="1500" type="line"/>
      <point x="962" y="-300" type="line"/>
      <point x="614" y="-300" type="line"/>
      <point x="614" y="99" type="line"/>
      <point x="588" y="36"/>
      <point x="501" y="-18"/>
      <point x="410" y="-18" type="curve" smooth="yes"/>
      <point x="146" y="-18"/>
      <point x="91" y="191"/>
      <point x="91" y="482" type="curve" smooth="yes"/>
    </contour>
    <contour>
      <point x="615" y="1081" type="line"/>
      <point x="615" y="1190"/>
      <point x="584" y="1243"/>
      <point x="524" y="1243" type="curve"/>
      <point x="447" y="1245"/>
      <point x="441" y="1160"/>
      <point x="441" y="1077" type="curve" smooth="yes"/>
      <point x="441" y="435" type="line" smooth="yes"/>
      <point x="441" y="341"/>
      <point x="448" y="254"/>
      <point x="524" y="254" type="curve" smooth="yes"/>
      <point x="599" y="254"/>
      <point x="615" y="327"/>
      <point x="615" y="421" type="curve" smooth="yes"/>
    </contour>
  </outline>
</glyph>
<glyph name="r" format="1">
  <advance width="760"/>
  <unicode hex="0072"/>
  <outline>
    <contour>
      <point x="463" y="1333" type="line"/>
      <point x="497" y="1449"/>
      <point x="585" y="1518"/>
      <point x="718" y="1518" type="curve" smooth="yes"/>
      <point x="723" y="1518"/>
      <point x="721" y="1225"/>
      <point x="721" y="1225" type="curve"/>
      <point x="632" y="1225"/>
      <point x="464" y="1194"/>
      <point x="463" y="1150" type="curve"/>
      <point x="463" y="0" type="line"/>
      <point x="111" y="0" type="line"/>
      <point x="111" y="1500" type="line"/>
      <point x="463" y="1500" type="line"/>
    </contour>
  </outline>
</glyph>
<glyph name="s" format="1">
  <advance width="943"/>
  <unicode hex="0073"/>
  <outline>
    <contour>
      <point x="68" y="1129" type="curve" smooth="yes"/>
      <point x="68" y="1400"/>
      <point x="189" y="1518"/>
      <point x="468" y="1518" type="curve" smooth="yes"/>
      <point x="732" y="1518"/>
      <point x="846" y="1403"/>
      <point x="846" y="1129" type="curve" smooth="yes"/>
      <point x="846" y="1033" type="line"/>
      <point x="551" y="1033" type="line"/>
      <point x="551" y="1125" type="line" smooth="yes"/>
      <point x="551" y="1207"/>
      <point x="527" y="1244"/>
      <point x="470" y="1244" type="curve" smooth="yes"/>
      <point x="416" y="1244"/>
      <point x="394" y="1219"/>
      <point x="392" y="1156" type="curve"/>
      <point x="393" y="1098"/>
      <point x="412" y="1056"/>
      <point x="455" y="1018" type="curve"/>
      <point x="644" y="850" type="line"/>
      <point x="804" y="706"/>
      <point x="873" y="571"/>
      <point x="873" y="394" type="curve" smooth="yes"/>
      <point x="873" y="107"/>
      <point x="749" y="-18"/>
      <point x="463" y="-18" type="curve" smooth="yes"/>
      <point x="184" y="-18"/>
      <point x="64" y="117"/>
      <point x="64" y="431" type="curve" smooth="yes"/>
      <point x="64" y="506" type="line"/>
      <point x="382" y="506" type="line"/>
      <point x="382" y="372" type="line" smooth="yes"/>
      <point x="382" y="292"/>
      <point x="406" y="255"/>
      <point x="462" y="255" type="curve" smooth="yes"/>
      <point x="512" y="255"/>
      <point x="536" y="288"/>
      <point x="536" y="367" type="curve" smooth="yes"/>
      <point x="536" y="459"/>
      <point x="500" y="529"/>
      <point x="415" y="601" type="curve" smooth="yes"/>
      <point x="412" y="601"/>
      <point x="241" y="751"/>
      <point x="239" y="752" type="curve" smooth="yes"/>
      <point x="120" y="854"/>
      <point x="68" y="967"/>
    </contour>
  </outline>
</glyph>
<glyph name="t" format="1">
  <advance width="697"/>
  <unicode hex="0074"/>
  <outline>
    <contour>
      <point x="147" y="1762" type="line"/>
      <point x="495" y="1762" type="line"/>
      <point x="495" y="1443" type="line"/>
      <point x="619" y="1443" type="line"/>
      <point x="619" y="1195" type="line"/>
      <point x="495" y="1195" type="line"/>
      <point x="495" y="322" type="line" smooth="yes"/>
      <point x="495" y="258"/>
      <point x="528" y="245"/>
      <point x="628" y="245" type="curve"/>
      <point x="628" y="-11" type="line"/>
      <point x="394" y="-11" type="line" smooth="yes"/>
      <point x="201" y="-11"/>
      <point x="147" y="68"/>
      <point x="147" y="237" type="curve" smooth="yes"/>
      <point x="147" y="1195" type="line"/>
      <point x="46" y="1195" type="line"/>
      <point x="46" y="1443" type="line"/>
      <point x="147" y="1443" type="line"/>
    </contour>
  </outline>
</glyph>
<glyph name="u" format="1">
  <advance width="1078"/>
  <unicode hex="0075"/>
  <outline>
    <contour>
      <point x="626" y="1500" type="line"/>
      <point x="970" y="1500" type="line"/>
      <point x="970" y="0" type="line"/>
      <point x="624" y="0" type="line"/>
      <point x="624" y="160" type="line"/>
      <point x="577" y="47"/>
      <point x="527" y="-18"/>
      <point x="393" y="-18" type="curve" smooth="yes"/>
      <point x="154" y="-18"/>
      <point x="104" y="140"/>
      <point x="104" y="379" type="curve" smooth="yes"/>
      <point x="104" y="1500" type="line"/>
      <point x="454" y="1500" type="line"/>
      <point x="454" y="445" type="line" smooth="yes"/>
      <point x="454" y="331"/>
      <point x="447" y="256"/>
      <point x="536" y="256" type="curve" smooth="yes"/>
      <point x="620" y="256"/>
      <point x="624" y="352"/>
      <point x="624" y="433" type="curve" smooth="yes"/>
    </contour>
  </outline>
</glyph>
<glyph name="v" format="1">
  <advance width="962"/>
  <unicode hex="0076"/>
  <outline>
    <contour>
      <point x="584" y="1500" type="line"/>
      <point x="917" y="1500" type="line"/>
      <point x="702" y="0" type="line"/>
      <point x="261" y="0" type="line"/>
      <point x="44" y="1500" type="line"/>
      <point x="383" y="1500" type="line"/>
      <point x="452" y="775" type="line"/>
      <point x="474" y="411" type="line"/>
      <point x="512" y="411" type="line"/>
      <point x="530" y="776" type="line"/>
    </contour>
  </outline>
</glyph>
<glyph name="w" format="1">
  <advance width="1387"/>
  <unicode hex="0077"/>
  <outline>
    <contour>
      <point x="1048" y="1500" type="line"/>
      <point x="1345" y="1500" type="line"/>
      <point x="1143" y="0" type="line"/>
      <point x="851" y="0" type="line"/>
      <point x="698" y="1062" type="line"/>
      <point x="561" y="0" type="line"/>
      <point x="277" y="0" type="line"/>
      <point x="40" y="1500" type="line"/>
      <point x="334" y="1500" type="line"/>
      <point x="406" y="1147" type="line"/>
      <point x="455" y="776" type="line"/>
      <point x="457" y="776" type="line"/>
      <point x="483" y="1148" type="line"/>
      <point x="530" y="1500" type="line"/>
      <point x="634" y="1500" type="line"/>
      <point x="755" y="1500" type="line"/>
      <point x="845" y="1500" type="line"/>
      <point x="914" y="1146" type="line"/>
      <point x="958" y="776" type="line"/>
      <point x="961" y="776" type="line"/>
      <point x="997" y="1142" type="line"/>
    </contour>
  </outline>
</glyph>
<glyph name="x" format="1">
  <advance width="963"/>
  <unicode hex="0078"/>
  <outline>
    <contour>
      <point x="39" y="1500" type="line"/>
      <point x="348" y="1500" type="line"/>
      <point x="497" y="1131" type="line"/>
      <point x="618" y="1500" type="line"/>
      <point x="918" y="1500" type="line"/>
      <point x="648" y="740" type="line"/>
      <point x="940" y="0" type="line"/>
      <point x="618" y="0" type="line"/>
      <point x="471" y="365" type="line"/>
      <point x="348" y="0" type="line"/>
      <point x="22" y="0" type="line"/>
      <point x="309" y="797" type="line"/>
    </contour>
  </outline>
</glyph>
<glyph name="y" format="1">
  <advance width="960"/>
  <unicode hex="0079"/>
  <outline>
    <contour>
      <point x="609" y="1502" type="line"/>
      <point x="934" y="1502" type="line"/>
      <point x="658" y="-112" type="line"/>
      <point x="641" y="-228"/>
      <point x="589" y="-284"/>
      <point x="461" y="-284" type="curve" smooth="yes"/>
      <point x="67" y="-284" type="line"/>
      <point x="67" y="-63" type="line"/>
      <point x="176" y="-63" type="line" smooth="yes"/>
      <point x="237" y="-63"/>
      <point x="274" y="-54"/>
      <point x="273" y="0" type="curve"/>
      <point x="275" y="11"/>
      <point x="273" y="67"/>
      <point x="270" y="89" type="curve" smooth="yes"/>
      <point x="36" y="1502" type="line"/>
      <point x="362" y="1502" type="line"/>
      <point x="441" y="751" type="line"/>
      <point x="476" y="350" type="line"/>
      <point x="503" y="350" type="line"/>
      <point x="535" y="751" type="line"/>
    </contour>
  </outline>
</glyph>
<glyph name="z" format="1">
  <advance width="815"/>
  <unicode hex="007A"/>
  <outline>
    <contour>
      <point x="100" y="1500" type="line"/>
      <point x="753" y="1500" type="line"/>
      <point x="753" y="1240" type="line"/>
      <point x="429" y="287" type="line"/>
      <point x="743" y="287" type="line"/>
      <point x="743" y="0" type="line"/>
      <point x="75" y="0" type="line"/>
      <point x="75" y="265" type="line"/>
      <point x="405" y="1204" type="line"/>
      <point x="100" y="1204" type="line"/>
    </contour>
  </outline>
</glyph>
<glyph name="braceleft" format="1">
  <advance width="993"/>
  <unicode hex="007B"/>
  <outline>
    <contour>
      <point x="743" y="1780" type="curve" smooth="yes"/>
      <point x="803" y="1780" type="line"/>
      <point x="803" y="1536" type="line"/>
      <point x="683" y="1536"/>
      <point x="664" y="1504"/>
      <point x="664" y="1429" type="curve" smooth="yes"/>
      <point x="664" y="1252" type="line" smooth="yes"/>
      <point x="664" y="1015"/>
      <point x="632" y="934"/>
      <point x="514" y="898" type="curve"/>
      <point x="632" y="862"/>
      <point x="664" y="781"/>
      <point x="664" y="544" type="curve" smooth="yes"/>
      <point x="664" y="367" type="line" smooth="yes"/>
      <point x="664" y="292"/>
      <point x="683" y="259"/>
      <point x="803" y="259" type="curve"/>
      <point x="803" y="16" type="line"/>
      <point x="743" y="16" type="line" smooth="yes"/>
      <point x="447" y="16"/>
      <point x="319" y="91"/>
      <point x="319" y="354" type="curve" smooth="yes"/>
      <point x="319" y="546" type="line" smooth="yes"/>
      <point x="319" y="683"/>
      <point x="318" y="750"/>
      <point x="180" y="750" type="curve"/>
      <point x="180" y="1046" type="line"/>
      <point x="318" y="1046"/>
      <point x="319" y="1113"/>
      <point x="319" y="1250" type="curve" smooth="yes"/>
      <point x="319" y="1442" type="line" smooth="yes"/>
      <point x="319" y="1705"/>
      <point x="447" y="1780"/>
    </contour>
  </outline>
</glyph>
<glyph name="bar" format="1">
  <advance width="537"/>
  <unicode hex="007C"/>
  <outline>
    <contour>
      <point x="115" y="1899" type="line"/>
      <point x="422" y="1899" type="line"/>
      <point x="422" y="-29" type="line"/>
      <point x="115" y="-29" type="line"/>
    </contour>
  </outline>
</glyph>
<glyph name="braceright" format="1">
  <advance width="993"/>
  <unicode hex="007D"/>
  <outline>
    <contour>
      <point x="272" y="1780" type="line"/>
      <point x="567" y="1780"/>
      <point x="696" y="1705"/>
      <point x="696" y="1442" type="curve" smooth="yes"/>
      <point x="696" y="1250" type="line" smooth="yes"/>
      <point x="696" y="1113"/>
      <point x="697" y="1046"/>
      <point x="835" y="1046" type="curve"/>
      <point x="835" y="750" type="line"/>
      <point x="697" y="750"/>
      <point x="696" y="683"/>
      <point x="696" y="546" type="curve" smooth="yes"/>
      <point x="696" y="354" type="line" smooth="yes"/>
      <point x="696" y="91"/>
      <point x="567" y="16"/>
      <point x="272" y="16" type="curve" smooth="yes"/>
      <point x="212" y="16" type="line"/>
      <point x="212" y="259" type="line"/>
      <point x="332" y="259"/>
      <point x="351" y="292"/>
      <point x="351" y="367" type="curve" smooth="yes"/>
      <point x="351" y="544" type="line" smooth="yes"/>
      <point x="351" y="781"/>
      <point x="382" y="862"/>
      <point x="503" y="898" type="curve"/>
      <point x="382" y="934"/>
      <point x="351" y="1015"/>
      <point x="351" y="1252" type="curve" smooth="yes"/>
      <point x="351" y="1429" type="line" smooth="yes"/>
      <point x="351" y="1504"/>
      <point x="332" y="1536"/>
      <point x="212" y="1536" type="curve"/>
      <point x="212" y="1780" type="line"/>
    </contour>
  </outline>
</glyph>
<glyph name="asciitilde" format="1">
  <advance width="1117"/>
  <unicode hex="007E"/>
  <outline>
    <contour>
      <point x="735" y="1108" type="curve"/>
      <point x="736" y="1107"/>
      <point x="787" y="1126"/>
      <point x="815" y="1213" type="curve"/>
      <point x="1031" y="1171" type="line"/>
      <point x="1028" y="1167"/>
      <point x="906" y="780"/>
      <point x="769" y="780" type="curve" smooth="yes"/>
      <point x="655" y="780"/>
      <point x="490" y="900"/>
      <point x="384" y="900" type="curve" smooth="yes"/>
      <point x="325" y="900"/>
      <point x="316" y="872"/>
      <point x="289" y="807" type="curve"/>
      <point x="85" y="895" type="line"/>
      <point x="136" y="1096"/>
      <point x="218" y="1217"/>
      <point x="355" y="1217" type="curve" smooth="yes"/>
      <point x="459" y="1217"/>
      <point x="671" y="1108"/>
    </contour>
  </outline>
</glyph>
<glyph name="cent" format="1">
  <advance width="663"/>
  <unicode hex="00A2"/>
  <outline>
    <contour>
      <point x="435" y="1765" type="line"/>
      <point x="548" y="1765" type="line"/>
      <point x="548" y="1508" type="line"/>
      <point x="435" y="1510" type="line"/>
    </contour>
    <contour>
      <point x="435" y="3" type="line"/>
      <point x="548" y="3" type="line"/>
      <point x="548" y="-252" type="line"/>
      <point x="435" y="-252" type="line"/>
    </contour>
    <component base="c"/>
  </outline>
</glyph>
<glyph name="yen" format="1">
  <advance width="920"/>
  <unicode hex="00A5"/>
  <outline>
    <contour>
      <point x="106" y="731" type="line"/>
      <point x="789" y="731" type="line"/>
      <point x="789" y="532" type="line"/>
      <point x="611" y="532" type="line"/>
      <point x="611" y="414" type="line"/>
      <point x="789" y="414" type="line"/>
      <point x="789" y="210" type="line"/>
      <point x="106" y="210" type="line"/>
      <point x="106" y="414" type="line"/>
      <point x="289" y="414" type="line"/>
      <point x="289" y="532" type="line"/>
      <point x="106" y="532" type="line"/>
    </contour>
    <component base="Y"/>
  </outline>
</glyph>
<glyph name="brokenbar" format="1">
  <advance width="592"/>
  <unicode hex="00A6"/>
  <outline>
    <contour>
      <point x="92" y="1762" type="line"/>
      <point x="501" y="1762" type="line"/>
      <point x="501" y="932" type="line"/>
      <point x="92" y="932" type="line"/>
    </contour>
    <contour>
      <point x="92" y="771" type="line"/>
      <point x="501" y="771" type="line"/>
      <point x="501" y="6" type="line"/>
      <point x="92" y="6" type="line"/>
    </contour>
  </outline>
</glyph>
<glyph name="dieresis" format="1">
  <advance width="976"/>
  <unicode hex="00A8"/>
  <outline>
    <contour>
      <point x="553" y="1867" type="line"/>
      <point x="907" y="1867" type="line"/>
      <point x="907" y="1575" type="line"/>
      <point x="553" y="1575" type="line"/>
    </contour>
    <contour>
      <point x="69" y="1867" type="line"/>
      <point x="423" y="1867" type="line"/>
      <point x="423" y="1575" type="line"/>
      <point x="69" y="1575" type="line"/>
    </contour>
  </outline>
</glyph>
<glyph name="copyright" format="1">
  <advance width="1466"/>
  <unicode hex="00A9"/>
  <outline>
    <contour>
      <point x="455" y="991" type="line"/>
      <point x="455" y="1215"/>
      <point x="571" y="1303"/>
      <point x="736" y="1303" type="curve" smooth="yes"/>
      <point x="870" y="1303"/>
      <point x="957" y="1209"/>
      <point x="957" y="1116" type="curve" smooth="yes"/>
      <point x="957" y="915" type="line"/>
      <point x="736" y="915" type="line"/>
      <point x="736" y="1008" type="line" smooth="yes"/>
      <point x="736" y="994"/>
      <point x="749" y="1046"/>
      <point x="733" y="1046" type="curve" smooth="yes"/>
      <point x="705" y="1046"/>
      <point x="747" y="995"/>
      <point x="747" y="1021" type="curve" smooth="yes"/>
      <point x="747" y="711" type="line" smooth="yes"/>
      <point x="747" y="735"/>
      <point x="726" y="667"/>
      <point x="733" y="667" type="curve" smooth="yes"/>
      <point x="749" y="667"/>
      <point x="736" y="706"/>
      <point x="736" y="711" type="curve" smooth="yes"/>
      <point x="736" y="860" type="line"/>
      <point x="961" y="860" type="line"/>
      <point x="961" y="668" type="line" smooth="yes"/>
      <point x="961" y="495"/>
      <point x="894" y="422"/>
      <point x="732" y="422" type="curve" smooth="yes"/>
      <point x="593" y="422"/>
      <point x="455" y="505"/>
      <point x="455" y="673" type="curve" smooth="yes"/>
    </contour>
    <contour>
      <point x="65" y="860" type="curve" smooth="yes"/>
      <point x="65" y="1233"/>
      <point x="349" y="1517"/>
      <point x="722" y="1517" type="curve" smooth="yes"/>
      <point x="1095" y="1517"/>
      <point x="1379" y="1233"/>
      <point x="1379" y="860" type="curve" smooth="yes"/>
      <point x="1379" y="487"/>
      <point x="1095" y="203"/>
      <point x="722" y="203" type="curve" smooth="yes"/>
      <point x="349" y="203"/>
      <point x="65" y="487"/>
    </contour>
    <contour>
      <point x="722" y="1388" type="curve" smooth="yes"/>
      <point x="509" y="1388"/>
      <point x="249" y="1189"/>
      <point x="249" y="861" type="curve" smooth="yes"/>
      <point x="249" y="533"/>
      <point x="509" y="332"/>
      <point x="722" y="332" type="curve" smooth="yes"/>
      <point x="935" y="332"/>
      <point x="1195" y="530"/>
      <point x="1195" y="858" type="curve" smooth="yes"/>
      <point x="1195" y="1187"/>
      <point x="935" y="1388"/>
    </contour>
  </outline>
</glyph>
<glyph name="ordfeminine" format="1">
  <advance width="927"/>
  <unicode hex="00AA"/>
  <outline>
    <contour>
      <point x="135" y="1036" type="curve"/>
      <point x="135" y="1273"/>
      <point x="239" y="1365"/>
      <point x="482" y="1365" type="curve" smooth="yes"/>
      <point x="676" y="1365"/>
      <point x="813" y="1262"/>
      <point x="813" y="1064" type="curve" smooth="yes"/>
      <point x="813" y="162" type="line"/>
      <point x="534" y="162" type="line"/>
      <point x="534" y="285" type="line"/>
      <point x="517" y="220"/>
      <point x="440" y="148"/>
      <point x="358" y="148" type="curve" smooth="yes"/>
      <point x="170" y="148"/>
      <point x="121" y="289"/>
      <point x="118" y="481" type="curve"/>
      <point x="118" y="506" type="line" smooth="yes"/>
      <point x="118" y="825"/>
      <point x="268" y="849"/>
      <point x="531" y="939" type="curve"/>
      <point x="531" y="945" type="line" smooth="yes"/>
      <point x="531" y="1023"/>
      <point x="544" y="1149"/>
      <point x="467" y="1149" type="curve" smooth="yes"/>
      <point x="428" y="1149"/>
      <point x="408" y="1125"/>
      <point x="408" y="1076" type="curve" smooth="yes"/>
      <point x="408" y="999" type="line"/>
      <point x="137" y="999" type="line"/>
      <point x="135" y="1011"/>
      <point x="135" y="1017"/>
    </contour>
    <contour>
      <point x="528" y="457" type="curve"/>
      <point x="528" y="777" type="line"/>
      <point x="446" y="746"/>
      <point x="402" y="706"/>
      <point x="402" y="614" type="curve" smooth="yes"/>
      <point x="402" y="475" type="line" smooth="yes"/>
      <point x="402" y="402"/>
      <point x="423" y="365"/>
      <point x="467" y="365" type="curve" smooth="yes"/>
      <point x="513" y="365"/>
      <point x="529" y="414"/>
    </contour>
  </outline>
</glyph>
<glyph name="guillemotleft" format="1">
  <advance width="1304"/>
  <unicode hex="00AB"/>
  <outline>
    <contour>
      <point x="672" y="953" type="line"/>
      <point x="1181" y="1224" type="line"/>
      <point x="1181" y="872" type="line"/>
      <point x="869" y="749" type="line"/>
      <point x="1181" y="617" type="line"/>
      <point x="1181" y="265" type="line"/>
      <point x="672" y="550" type="line"/>
    </contour>
    <contour>
      <point x="96" y="953" type="line"/>
      <point x="605" y="1224" type="line"/>
      <point x="605" y="872" type="line"/>
      <point x="293" y="749" type="line"/>
      <point x="605" y="617" type="line"/>
      <point x="605" y="265" type="line"/>
      <point x="96" y="550" type="line"/>
    </contour>
  </outline>
</glyph>
<glyph name="macron" format="1">
  <advance width="696"/>
  <unicode hex="00AF"/>
  <outline>
    <contour>
      <point x="90" y="1815" type="line"/>
      <point x="605" y="1815" type="line"/>
      <point x="605" y="1638" type="line"/>
      <point x="90" y="1638" type="line"/>
    </contour>
  </outline>
</glyph>
<glyph name="plusminus" format="1">
  <advance width="854"/>
  <unicode hex="00B1"/>
  <outline>
    <contour>
      <point x="312" y="1066" type="line"/>
      <point x="542" y="1066" type="line"/>
      <point x="542" y="856" type="line"/>
      <point x="750" y="856" type="line"/>
      <point x="750" y="628" type="line"/>
      <point x="542" y="628" type="line"/>
      <point x="542" y="418" type="line"/>
      <point x="312" y="418" type="line"/>
      <point x="312" y="628" type="line"/>
      <point x="103" y="628" type="line"/>
      <point x="103" y="856" type="line"/>
      <point x="312" y="856" type="line"/>
    </contour>
    <contour>
      <point x="144" y="237" type="line"/>
      <point x="660" y="237" type="line"/>
      <point x="660" y="7" type="line"/>
      <point x="144" y="7" type="line"/>
    </contour>
  </outline>
</glyph>
<glyph name="uni00B2" format="1">
  <advance width="810"/>
  <unicode hex="00B2"/>
  <outline>
    <contour>
      <point x="127" y="1407" type="line"/>
      <point x="127" y="1654"/>
      <point x="186" y="1781"/>
      <point x="418" y="1781" type="curve" smooth="yes"/>
      <point x="602" y="1781"/>
      <point x="706" y="1671"/>
      <point x="706" y="1482" type="curve" smooth="yes"/>
      <point x="706" y="1187"/>
      <point x="493" y="1072"/>
      <point x="395" y="872" type="curve"/>
      <point x="697" y="872" type="line"/>
      <point x="697" y="669" type="line"/>
      <point x="128" y="669" type="line"/>
      <point x="128" y="724" type="line" smooth="yes"/>
      <point x="128" y="958"/>
      <point x="276" y="1113"/>
      <point x="420" y="1291" type="curve"/>
      <point x="457" y="1338"/>
      <point x="476" y="1400"/>
      <point x="476" y="1479" type="curve" smooth="yes"/>
      <point x="476" y="1545"/>
      <point x="454" y="1578"/>
      <point x="415" y="1578" type="curve" smooth="yes"/>
      <point x="377" y="1578"/>
      <point x="358" y="1546"/>
      <point x="358" y="1476" type="curve" smooth="yes"/>
      <point x="358" y="1338" type="line"/>
      <point x="129" y="1338" type="line"/>
    </contour>
  </outline>
</glyph>
<glyph name="uni00B3" format="1">
  <advance width="839"/>
  <unicode hex="00B3"/>
  <outline>
    <contour>
      <point x="113" y="1405" type="line"/>
      <point x="113" y="1118"/>
      <point x="22" y="1054"/>
      <point x="-218" y="1054" type="curve" smooth="yes"/>
      <point x="-449" y="1550"/>
      <point x="-372" y="1926"/>
      <point x="93" y="2209" type="curve" smooth="yes"/>
      <point x="546" y="2390"/>
      <point x="802" y="2282"/>
      <point x="922" y="1845" type="curve"/>
      <point x="796" y="1610"/>
      <point x="680" y="1562"/>
      <point x="467" y="1680" type="curve" smooth="yes"/>
      <point x="703" y="1893"/>
      <point x="862" y="1806"/>
      <point x="1105" y="1463" type="curve" smooth="yes"/>
      <point x="1345" y="926"/>
      <point x="1232" y="494"/>
      <point x="738" y="187" type="curve" smooth="yes"/>
      <point x="276" y="187"/>
      <point x="104" y="367"/>
      <point x="104" y="887" type="curve"/>
      <point x="-93" y="1073" type="line"/>
      <point x="351" y="1148" type="line" smooth="yes"/>
      <point x="351" y="1369"/>
      <point x="333" y="1254"/>
      <point x="218" y="1254" type="curve" smooth="yes"/>
      <point x="103" y="966"/>
      <point x="109" y="762"/>
      <point x="288" y="541" type="curve" smooth="yes"/>
      <point x="469" y="299"/>
      <point x="543" y="361"/>
      <point x="681" y="666" type="curve" smooth="yes"/>
      <point x="681" y="1000"/>
      <point x="664" y="1169"/>
      <point x="425" y="1169" type="curve"/>
      <point x="356" y="1013" type="line"/>
      <point x="318" y="1347" type="line"/>
      <point x="185" y="1345"/>
      <point x="194" y="1301"/>
      <point x="194" y="1062" type="curve" smooth="yes"/>
      <point x="416" y="850"/>
      <point x="556" y="897"/>
      <point x="635" y="1214" type="curve" smooth="yes"/>
      <point x="720" y="1505"/>
      <point x="680" y="1636"/>
      <point x="559" y="1848" type="curve" smooth="yes"/>
      <point x="408" y="1848"/>
      <point x="363" y="1780"/>
      <point x="363" y="1511" type="curve"/>
      <point x="363" y="1496"/>
      <point x="559" y="1458"/>
      <point x="559" y="1444" type="curve"/>
    </contour>
  </outline>
</glyph>
<glyph name="acute" format="1">
  <advance width="765"/>
  <unicode hex="00B4"/>
  <outline>
    <contour>
      <point x="-143" y="2347" type="line"/>
      <point x="11" y="2719" type="line"/>
      <point x="944" y="2597" type="line"/>
      <point x="668" y="1982" type="line"/>
    </contour>
  </outline>
</glyph>
<glyph name="paragraph" format="1">
  <advance width="1195"/>
  <unicode hex="00B6"/>
  <outline>
    <contour>
      <point x="674" y="1761" type="curve" smooth="yes"/>
      <point x="1046" y="1761" type="line"/>
      <point x="1046" y="0" type="line"/>
      <point x="830" y="0" type="line"/>
      <point x="830" y="1461" type="line"/>
      <point x="687" y="1461" type="line"/>
      <point x="687" y="0" type="line"/>
      <point x="471" y="0" type="line"/>
      <point x="471" y="1021" type="line"/>
      <point x="233" y="1047"/>
      <point x="124" y="1153"/>
      <point x="124" y="1411" type="curve" smooth="yes"/>
      <point x="124" y="1712"/>
      <point x="364" y="1761"/>
    </contour>
  </outline>
</glyph>
<glyph name="periodcentered" format="1">
  <advance width="480"/>
  <unicode hex="00B7"/>
  <outline>
    <contour>
      <point x="110" y="1020" type="line"/>
      <point x="384" y="1020" type="line"/>
      <point x="384" y="724" type="line"/>
      <point x="110" y="724" type="line"/>
    </contour>
  </outline>
</glyph>
<glyph name="cedilla" format="1">
  <advance width="1943"/>
  <unicode hex="00B8"/>
  <outline>
    <contour>
      <point x="809" y="0" type="line"/>
      <point x="909" y="0" type="line"/>
      <point x="928" y="-137" type="line"/>
      <point x="1096" y="-181"/>
      <point x="1191" y="-284"/>
      <point x="1191" y="-411" type="curve" smooth="yes"/>
      <point x="1191" y="-543"/>
      <point x="1093" y="-667"/>
      <point x="891" y="-667" type="curve" smooth="yes"/>
      <point x="824" y="-667"/>
      <point x="759" y="-656"/>
      <point x="698" y="-630" type="curve"/>
      <point x="698" y="-501" type="line"/>
      <point x="887" y="-501"/>
      <point x="929" y="-434"/>
      <point x="929" y="-359" type="curve" smooth="yes"/>
      <point x="929" y="-269"/>
      <point x="851" y="-214"/>
      <point x="769" y="-196" type="curve"/>
    </contour>
  </outline>
</glyph>
<glyph name="uni00B9" format="1">
  <advance width="629"/>
  <unicode hex="00B9"/>
  <outline>
    <contour>
      <point x="285" y="1759" type="curve"/>
      <point x="492" y="1759" type="line"/>
      <point x="492" y="671" type="line"/>
      <point x="217" y="671" type="line"/>
      <point x="217" y="1488" type="line"/>
      <point x="169" y="1464"/>
      <point x="114" y="1451"/>
      <point x="57" y="1451" type="curve"/>
      <point x="57" y="1621" type="line"/>
      <point x="133" y="1623"/>
      <point x="283" y="1687"/>
    </contour>
  </outline>
</glyph>
<glyph name="ordmasculine" format="1">
  <advance width="1017"/>
  <unicode hex="00BA"/>
  <outline>
    <contour>
      <point x="177" y="992" type="line"/>
      <point x="177" y="1212"/>
      <point x="293" y="1362"/>
      <point x="529" y="1362" type="curve" smooth="yes"/>
      <point x="782" y="1362"/>
      <point x="881" y="1217"/>
      <point x="881" y="992" type="curve" smooth="yes"/>
      <point x="881" y="516" type="line" smooth="yes"/>
      <point x="881" y="274"/>
      <point x="767" y="144"/>
      <point x="529" y="144" type="curve" smooth="yes"/>
      <point x="293" y="144"/>
      <point x="177" y="269"/>
      <point x="177" y="516" type="curve" smooth="yes"/>
    </contour>
    <contour>
      <point x="598" y="1037" type="line"/>
      <point x="598" y="1109"/>
      <point x="576" y="1144"/>
      <point x="529" y="1144" type="curve" smooth="yes"/>
      <point x="483" y="1144"/>
      <point x="462" y="1109"/>
      <point x="462" y="1037" type="curve" smooth="yes"/>
      <point x="462" y="458" type="line" smooth="yes"/>
      <point x="462" y="398"/>
      <point x="495" y="362"/>
      <point x="529" y="360" type="curve"/>
      <point x="566" y="359"/>
      <point x="598" y="390"/>
      <point x="598" y="458" type="curve" smooth="yes"/>
    </contour>
  </outline>
</glyph>
<glyph name="guillemotright" format="1">
  <advance width="1304"/>
  <unicode hex="00BB"/>
  <outline>
    <contour>
      <point x="696" y="872" type="line"/>
      <point x="696" y="1224" type="line"/>
      <point x="1205" y="953" type="line"/>
      <point x="1205" y="550" type="line"/>
      <point x="696" y="265" type="line"/>
      <point x="696" y="617" type="line"/>
      <point x="1008" y="749" type="line"/>
    </contour>
    <contour>
      <point x="122" y="872" type="line"/>
      <point x="122" y="1224" type="line"/>
      <point x="629" y="953" type="line"/>
      <point x="629" y="550" type="line"/>
      <point x="122" y="265" type="line"/>
      <point x="122" y="617" type="line"/>
      <point x="434" y="749" type="line"/>
    </contour>
  </outline>
</glyph>
<glyph name="onequarter" format="1">
  <advance width="1535"/>
  <unicode hex="00BC"/>
  <outline>
    <contour>
      <point x="891" y="1777" type="line"/>
      <point x="1158" y="1777" type="line"/>
      <point x="629" y="0" type="line"/>
      <point x="362" y="0" type="line"/>
    </contour>
    <contour>
      <point x="256" y="1569" type="curve"/>
      <point x="433" y="1569" type="line"/>
      <point x="433" y="602" type="line"/>
      <point x="207" y="602" type="line"/>
      <point x="207" y="1329" type="line"/>
      <point x="169" y="1308"/>
      <point x="127" y="1296"/>
      <point x="83" y="1296" type="curve"/>
      <point x="83" y="1447" type="line"/>
      <point x="141" y="1448"/>
      <point x="256" y="1504"/>
    </contour>
    <contour>
      <point x="1081" y="951" type="line"/>
      <point x="1397" y="951" type="line"/>
      <point x="1397" y="323" type="line"/>
      <point x="1437" y="323" type="line"/>
      <point x="1437" y="155" type="line"/>
      <point x="1397" y="155" type="line"/>
      <point x="1397" y="0" type="line"/>
      <point x="1192" y="0" type="line"/>
      <point x="1192" y="155" type="line"/>
      <point x="892" y="155" type="line"/>
      <point x="892" y="300" type="line"/>
    </contour>
    <contour>
      <point x="1192" y="323" type="line"/>
      <point x="1192" y="775" type="line"/>
      <point x="1080" y="323" type="line"/>
    </contour>
  </outline>
</glyph>
<glyph name="onehalf" format="1">
  <advance width="1620"/>
  <unicode hex="00BD"/>
  <outline>
    <contour>
      <point x="1001" y="657" type="line"/>
      <point x="1001" y="877"/>
      <point x="1056" y="989"/>
      <point x="1265" y="989" type="curve" smooth="yes"/>
      <point x="1430" y="989"/>
      <point x="1526" y="890"/>
      <point x="1526" y="722" type="curve" smooth="yes"/>
      <point x="1526" y="460"/>
      <point x="1333" y="360"/>
      <point x="1245" y="180" type="curve"/>
      <point x="1520" y="180" type="line"/>
      <point x="1520" y="0" type="line"/>
      <point x="1003" y="0" type="line"/>
      <point x="1003" y="48" type="line" smooth="yes"/>
      <point x="1003" y="257"/>
      <point x="1138" y="396"/>
      <point x="1267" y="555" type="curve"/>
      <point x="1299" y="595"/>
      <point x="1318" y="651"/>
      <point x="1318" y="722" type="curve" smooth="yes"/>
      <point x="1318" y="780"/>
      <point x="1298" y="810"/>
      <point x="1264" y="810" type="curve" smooth="yes"/>
      <point x="1230" y="810"/>
      <point x="1211" y="779"/>
      <point x="1211" y="716" type="curve" smooth="yes"/>
      <point x="1211" y="596" type="line"/>
      <point x="1004" y="596" type="line"/>
    </contour>
    <contour>
      <point x="256" y="1569" type="curve"/>
      <point x="433" y="1569" type="line"/>
      <point x="433" y="602" type="line"/>
      <point x="207" y="602" type="line"/>
      <point x="207" y="1329" type="line"/>
      <point x="169" y="1308"/>
      <point x="127" y="1296"/>
      <point x="83" y="1296" type="curve"/>
      <point x="83" y="1447" type="line"/>
      <point x="141" y="1448"/>
      <point x="256" y="1504"/>
    </contour>
    <contour>
      <point x="877" y="1777" type="line"/>
      <point x="1144" y="1777" type="line"/>
      <point x="615" y="0" type="line"/>
      <point x="348" y="0" type="line"/>
    </contour>
  </outline>
</glyph>
<glyph name="threequarters" format="1">
  <advance width="1555"/>
  <unicode hex="00BE"/>
  <outline>
    <contour>
      <point x="40" y="1307" type="line"/>
      <point x="40" y="1489"/>
      <point x="121" y="1565"/>
      <point x="294" y="1565" type="curve" smooth="yes"/>
      <point x="461" y="1565"/>
      <point x="546" y="1477"/>
      <point x="546" y="1307" type="curve" smooth="yes"/>
      <point x="546" y="1212"/>
      <point x="524" y="1147"/>
      <point x="453" y="1123" type="curve"/>
      <point x="537" y="1084"/>
      <point x="549" y="1016"/>
      <point x="549" y="885" type="curve" smooth="yes"/>
      <point x="549" y="692"/>
      <point x="472" y="583"/>
      <point x="283" y="583" type="curve" smooth="yes"/>
      <point x="110" y="583"/>
      <point x="33" y="676"/>
      <point x="33" y="855" type="curve" smooth="yes"/>
      <point x="33" y="952" type="line"/>
      <point x="232" y="952" type="line"/>
      <point x="232" y="855" type="line" smooth="yes"/>
      <point x="232" y="798"/>
      <point x="242" y="759"/>
      <point x="292" y="759" type="curve" smooth="yes"/>
      <point x="344" y="759"/>
      <point x="344" y="812"/>
      <point x="344" y="884" type="curve" smooth="yes"/>
      <point x="344" y="966"/>
      <point x="336" y="1037"/>
      <point x="258" y="1037" type="curve" smooth="yes"/>
      <point x="249" y="1037"/>
      <point x="244" y="1037"/>
      <point x="237" y="1035" type="curve"/>
      <point x="237" y="1206" type="line"/>
      <point x="251" y="1206" type="line"/>
      <point x="313" y="1209"/>
      <point x="347" y="1234"/>
      <point x="347" y="1305" type="curve" smooth="yes"/>
      <point x="347" y="1363"/>
      <point x="327" y="1391"/>
      <point x="295" y="1391" type="curve" smooth="yes"/>
      <point x="244" y="1391"/>
      <point x="242" y="1351"/>
      <point x="242" y="1302" type="curve"/>
      <point x="242" y="1290"/>
      <point x="241" y="1285"/>
      <point x="241" y="1273" type="curve"/>
      <point x="40" y="1273" type="line"/>
    </contour>
    <contour>
      <point x="1013" y="1777" type="line"/>
      <point x="1279" y="1777" type="line"/>
      <point x="750" y="0" type="line"/>
      <point x="484" y="0" type="line"/>
    </contour>
    <contour>
      <point x="1129" y="951" type="line"/>
      <point x="1445" y="951" type="line"/>
      <point x="1445" y="323" type="line"/>
      <point x="1485" y="323" type="line"/>
      <point x="1485" y="155" type="line"/>
      <point x="1445" y="155" type="line"/>
      <point x="1445" y="0" type="line"/>
      <point x="1240" y="0" type="line"/>
      <point x="1240" y="155" type="line"/>
      <point x="940" y="155" type="line"/>
      <point x="940" y="300" type="line"/>
    </contour>
    <contour>
      <point x="1240" y="323" type="line"/>
      <point x="1240" y="775" type="line"/>
      <point x="1128" y="323" type="line"/>
    </contour>
  </outline>
</glyph>
<glyph name="AE" format="1">
  <advance width="1301"/>
  <unicode hex="00C6"/>
  <outline>
    <contour>
      <point x="293" y="1762" type="line"/>
      <point x="1217" y="1762" type="line"/>
      <point x="1217" y="1447" type="line"/>
      <point x="972" y="1447" type="line"/>
      <point x="972" y="1060" type="line"/>
      <point x="1202" y="1060" type="line"/>
      <point x="1202" y="748" type="line"/>
      <point x="972" y="748" type="line"/>
      <point x="972" y="313" type="line"/>
      <point x="1240" y="313" type="line"/>
      <point x="1240" y="0" type="line"/>
      <point x="620" y="0" type="line"/>
      <point x="620" y="284" type="line"/>
      <point x="417" y="284" type="line"/>
      <point x="378" y="0" type="line"/>
      <point x="33" y="0" type="line"/>
    </contour>
    <contour>
      <point x="620" y="533" type="line"/>
      <point x="620" y="1447" type="line"/>
      <point x="572" y="1446" type="line"/>
      <point x="447" y="533" type="line"/>
    </contour>
  </outline>
</glyph>
<glyph name="multiply" format="1">
  <advance width="710"/>
  <unicode hex="00D7"/>
  <outline>
    <contour>
      <point x="458" y="936" type="line"/>
      <point x="710" y="689" type="line"/>
      <point x="603" y="583" type="line"/>
      <point x="710" y="478" type="line"/>
      <point x="458" y="231" type="line"/>
      <point x="355" y="335" type="line"/>
      <point x="252" y="231" type="line"/>
      <point x="0" y="478" type="line"/>
      <point x="107" y="583" type="line"/>
      <point x="0" y="689" type="line"/>
      <point x="252" y="936" type="line"/>
      <point x="355" y="832" type="line"/>
    </contour>
  </outline>
</glyph>
<glyph name="Oslash" format="1">
  <advance width="900"/>
  <unicode hex="00D8"/>
  <outline>
    <contour>
      <point x="120" y="-166" type="line"/>
      <point x="848" y="1906" type="line"/>
      <point x="955" y="1870" type="line"/>
      <point x="219" y="-206" type="line"/>
    </contour>
    <component base="O"/>
  </outline>
</glyph>
<glyph name="Thorn" format="1">
  <advance width="1058"/>
  <unicode hex="00DE"/>
  <outline>
    <contour>
      <point x="124" y="1762" type="line"/>
      <point x="478" y="1762" type="line"/>
      <point x="478" y="1494" type="line"/>
      <point x="598" y="1494" type="line" smooth="yes"/>
      <point x="879" y="1494"/>
      <point x="989" y="1324"/>
      <point x="997" y="973" type="curve"/>
      <point x="997" y="939" type="line" smooth="yes"/>
      <point x="997" y="616"/>
      <point x="911" y="389"/>
      <point x="620" y="389" type="curve" smooth="yes"/>
      <point x="478" y="389" type="line"/>
      <point x="478" y="0" type="line"/>
      <point x="124" y="0" type="line"/>
    </contour>
    <contour>
      <point x="643" y="958" type="line"/>
      <point x="643" y="1115"/>
      <point x="631" y="1228"/>
      <point x="520" y="1228" type="curve" smooth="yes"/>
      <point x="478" y="1228" type="line"/>
      <point x="478" y="680" type="line"/>
      <point x="521" y="680" type="line" smooth="yes"/>
      <point x="635" y="680"/>
      <point x="643" y="770"/>
      <point x="643" y="943" type="curve" smooth="yes"/>
    </contour>
  </outline>
</glyph>
<glyph name="germandbls" format="1">
  <advance width="1103"/>
  <unicode hex="00DF"/>
  <outline>
    <contour>
      <point x="123" y="1417" type="line"/>
      <point x="123" y="1660"/>
      <point x="279" y="1781"/>
      <point x="562" y="1781" type="curve" smooth="yes"/>
      <point x="821" y="1781"/>
      <point x="986" y="1680"/>
      <point x="986" y="1417" type="curve" smooth="yes"/>
      <point x="986" y="1220" type="line" smooth="yes"/>
      <point x="986" y="1080"/>
      <point x="942" y="979"/>
      <point x="833" y="945" type="curve"/>
      <point x="1000" y="906"/>
      <point x="1046" y="753"/>
      <point x="1046" y="553" type="curve" smooth="yes"/>
      <point x="1046" y="476" type="line" smooth="yes"/>
      <point x="1046" y="177"/>
      <point x="947" y="0"/>
      <point x="647" y="0" type="curve" smooth="yes"/>
      <point x="543" y="0" type="line"/>
      <point x="543" y="273" type="line"/>
      <point x="643" y="273"/>
      <point x="703" y="311"/>
      <point x="703" y="395" type="curve" smooth="yes"/>
      <point x="703" y="656" type="line" smooth="yes"/>
      <point x="703" y="765"/>
      <point x="665" y="806"/>
      <point x="552" y="806" type="curve"/>
      <point x="552" y="1050" type="line"/>
      <point x="625" y="1050"/>
      <point x="641" y="1101"/>
      <point x="641" y="1170" type="curve" smooth="yes"/>
      <point x="641" y="1394" type="line" smooth="yes"/>
      <point x="641" y="1447"/>
      <point x="615" y="1472"/>
      <point x="563" y="1472" type="curve" smooth="yes"/>
      <point x="511" y="1472"/>
      <point x="472" y="1447"/>
      <point x="472" y="1394" type="curve" smooth="yes"/>
      <point x="472" y="0" type="line"/>
      <point x="123" y="0" type="line"/>
    </contour>
  </outline>
</glyph>
<glyph name="ae" format="1">
  <advance width="1563"/>
  <unicode hex="00E6"/>
  <outline>
    <contour>
      <point x="784" y="1397" type="curve"/>
      <point x="837" y="1476"/>
      <point x="924" y="1518"/>
      <point x="1049" y="1518" type="curve" smooth="yes"/>
      <point x="1336" y="1518"/>
      <point x="1475" y="1375"/>
      <point x="1475" y="1090" type="curve"/>
      <point x="1475" y="1090"/>
      <point x="1475" y="755"/>
      <point x="1471" y="707" type="curve"/>
      <point x="954" y="707" type="line"/>
      <point x="954" y="493" type="line" smooth="yes"/>
      <point x="954" y="335"/>
      <point x="981" y="256"/>
      <point x="1043" y="256" type="curve" smooth="yes"/>
      <point x="1130" y="256"/>
      <point x="1129" y="388"/>
      <point x="1129" y="482" type="curve" smooth="yes"/>
      <point x="1129" y="554"/>
      <point x="1127" y="572"/>
      <point x="1127" y="579" type="curve"/>
      <point x="1474" y="579" type="line"/>
      <point x="1474" y="495" type="line" smooth="yes"/>
      <point x="1474" y="172"/>
      <point x="1390" y="-18"/>
      <point x="1068" y="-18" type="curve" smooth="yes"/>
      <point x="930" y="-18"/>
      <point x="825" y="53"/>
      <point x="784" y="146" type="curve"/>
      <point x="736" y="51"/>
      <point x="634" y="-18"/>
      <point x="485" y="-18" type="curve" smooth="yes"/>
      <point x="222" y="-18"/>
      <point x="81" y="152"/>
      <point x="81" y="428" type="curve" smooth="yes"/>
      <point x="81" y="463" type="line"/>
      <point x="90" y="838"/>
      <point x="276" y="868"/>
      <point x="600" y="979" type="curve"/>
      <point x="600" y="979"/>
      <point x="603" y="1003"/>
      <point x="600" y="1058" type="curve"/>
      <point x="599" y="1140"/>
      <point x="584" y="1244"/>
      <point x="522" y="1244" type="curve" smooth="yes"/>
      <point x="470" y="1244"/>
      <point x="444" y="1215"/>
      <point x="444" y="1153" type="curve" smooth="yes"/>
      <point x="444" y="1054" type="line"/>
      <point x="104" y="1054" type="line"/>
      <point x="102" y="1068"/>
      <point x="102" y="1078"/>
      <point x="102" y="1102" type="curve" smooth="yes"/>
      <point x="102" y="1401"/>
      <point x="232" y="1518"/>
      <point x="537" y="1518" type="curve" smooth="yes"/>
      <point x="649" y="1518"/>
      <point x="730" y="1477"/>
    </contour>
    <contour>
      <point x="599" y="374" type="curve"/>
      <point x="599" y="777" type="line"/>
      <point x="495" y="734"/>
      <point x="438" y="688"/>
      <point x="438" y="568" type="curve" smooth="yes"/>
      <point x="438" y="396" type="line" smooth="yes"/>
      <point x="438" y="302"/>
      <point x="466" y="258"/>
      <point x="520" y="258" type="curve" smooth="yes"/>
      <point x="577" y="258"/>
      <point x="598" y="317"/>
    </contour>
    <contour>
      <point x="1127" y="1087" type="line"/>
      <point x="1127" y="1197"/>
      <point x="1102" y="1254"/>
      <point x="1046" y="1254" type="curve" smooth="yes"/>
      <point x="955" y="1254"/>
      <point x="954" y="1169"/>
      <point x="954" y="1053" type="curve" smooth="yes"/>
      <point x="954" y="930" type="line"/>
      <point x="1127" y="930" type="line"/>
    </contour>
  </outline>
</glyph>
<glyph name="eth" format="1">
  <advance width="1075"/>
  <unicode hex="00F0"/>
  <outline>
    <contour>
      <point x="251" y="1623" type="curve"/>
      <point x="485" y="1782" type="line"/>
      <point x="552" y="1753"/>
      <point x="624" y="1703"/>
      <point x="693" y="1632" type="curve"/>
      <point x="890" y="1735" type="line"/>
      <point x="966" y="1572" type="line"/>
      <point x="801" y="1486" type="line"/>
      <point x="898" y="1329"/>
      <point x="967" y="1091"/>
      <point x="967" y="785" type="curve" smooth="yes"/>
      <point x="967" y="542" type="line" smooth="yes"/>
      <point x="967" y="146"/>
      <point x="896" y="-22"/>
      <point x="533" y="-22" type="curve" smooth="yes"/>
      <point x="195" y="-22"/>
      <point x="83" y="158"/>
      <point x="83" y="512" type="curve" smooth="yes"/>
      <point x="83" y="607" type="line" smooth="yes"/>
      <point x="83" y="918"/>
      <point x="197" y="1095"/>
      <point x="445" y="1094" type="curve" smooth="yes"/>
      <point x="535" y="1094"/>
      <point x="565" y="1080"/>
      <point x="595" y="1066" type="curve"/>
      <point x="595" y="1146"/>
      <point x="569" y="1246"/>
      <point x="518" y="1338" type="curve"/>
      <point x="320" y="1236" type="line"/>
      <point x="247" y="1399" type="line"/>
      <point x="409" y="1484" type="line"/>
      <point x="366" y="1533"/>
      <point x="309" y="1581"/>
    </contour>
    <contour>
      <point x="614" y="668" type="line"/>
      <point x="614" y="760"/>
      <point x="584" y="798"/>
      <point x="521" y="798" type="curve" smooth="yes"/>
      <point x="460" y="798"/>
      <point x="435" y="753"/>
      <point x="435" y="661" type="curve" smooth="yes"/>
      <point x="435" y="426" type="line" smooth="yes"/>
      <point x="435" y="332"/>
      <point x="461" y="287"/>
      <point x="529" y="287" type="curve" smooth="yes"/>
      <point x="592" y="287"/>
      <point x="614" y="327"/>
      <point x="614" y="421" type="curve" smooth="yes"/>
    </contour>
  </outline>
</glyph>
<glyph name="divide" format="1">
  <advance width="804"/>
  <unicode hex="00F7"/>
  <outline>
    <contour>
      <point x="94" y="914" type="line"/>
      <point x="710" y="914" type="line"/>
      <point x="710" y="592" type="line"/>
      <point x="94" y="592" type="line"/>
    </contour>
    <contour>
      <point x="184" y="590" type="line"/>
      <point x="620" y="590" type="line"/>
      <point x="620" y="292" type="line"/>
      <point x="184" y="292" type="line"/>
    </contour>
    <contour>
      <point x="184" y="1219" type="line"/>
      <point x="620" y="1219" type="line"/>
      <point x="620" y="921" type="line"/>
      <point x="184" y="921" type="line"/>
    </contour>
  </outline>
</glyph>
<glyph name="oslash" format="1">
  <advance width="879"/>
  <unicode hex="00F8"/>
  <outline>
    <contour>
      <point x="220" y="-145" type="line"/>
      <point x="729" y="1672" type="line"/>
      <point x="830" y="1644" type="line"/>
      <point x="320" y="-173" type="line"/>
    </contour>
    <component base="o"/>
  </outline>
</glyph>
<glyph name="thorn" format="1">
  <advance width="1084"/>
  <unicode hex="00FE"/>
  <outline>
    <contour>
      <point x="114" y="1769" type="line"/>
      <point x="463" y="1769" type="line"/>
      <point x="463" y="1351" type="line"/>
      <point x="500" y="1449"/>
      <point x="597" y="1518"/>
      <point x="685" y="1518" type="curve" smooth="yes"/>
      <point x="933" y="1518"/>
      <point x="983" y="1322"/>
      <point x="983" y="1073" type="curve" smooth="yes"/>
      <point x="983" y="520" type="line" smooth="yes"/>
      <point x="983" y="224"/>
      <point x="962" y="-18"/>
      <point x="669" y="-18" type="curve" smooth="yes"/>
      <point x="579" y="-18"/>
      <point x="509" y="27"/>
      <point x="463" y="79" type="curve"/>
      <point x="463" y="-300" type="line"/>
      <point x="114" y="-300" type="line"/>
    </contour>
    <contour>
      <point x="637" y="1075" type="line"/>
      <point x="637" y="1156"/>
      <point x="629" y="1240"/>
      <point x="552" y="1240" type="curve" smooth="yes"/>
      <point x="493" y="1240"/>
      <point x="463" y="1188"/>
      <point x="463" y="1077" type="curve" smooth="yes"/>
      <point x="463" y="423" type="line" smooth="yes"/>
      <point x="463" y="332"/>
      <point x="478" y="258"/>
      <point x="554" y="258" type="curve"/>
      <point x="628" y="256"/>
      <point x="637" y="341"/>
      <point x="637" y="439" type="curve" smooth="yes"/>
    </contour>
  </outline>
</glyph>
<glyph name="Hbar" format="1">
  <advance width="1118"/>
  <unicode hex="0126"/>
  <outline>
    <contour>
      <point x="55" y="1516" type="line"/>
      <point x="1080" y="1516" type="line"/>
      <point x="1080" y="1350" type="line"/>
      <point x="55" y="1350" type="line"/>
    </contour>
    <component base="H"/>
  </outline>
</glyph>
<glyph name="hbar" format="1">
  <advance width="1081"/>
  <unicode hex="0127"/>
  <outline>
    <contour>
      <point x="0" y="1716" type="line"/>
      <point x="804" y="1716" type="line"/>
      <point x="804" y="1617" type="line"/>
      <point x="0" y="1617" type="line"/>
    </contour>
    <component base="h"/>
  </outline>
</glyph>
<glyph name="dotlessi" format="1">
  <advance width="583"/>
  <unicode hex="0131"/>
  <outline>
    <contour>
      <point x="118" y="1500" type="line"/>
      <point x="465" y="1500" type="line"/>
      <point x="465" y="0" type="line"/>
      <point x="118" y="0" type="line"/>
    </contour>
  </outline>
</glyph>
<glyph name="kgreenlandic" format="1">
  <advance width="1035"/>
  <unicode hex="0138"/>
  <outline>
    <contour>
      <point x="111" y="1498" type="line"/>
      <point x="459" y="1498" type="line"/>
      <point x="459" y="861" type="line"/>
      <point x="661" y="1500" type="line"/>
      <point x="1016" y="1500" type="line"/>
      <point x="765" y="766" type="line"/>
      <point x="1033" y="0" type="line"/>
      <point x="681" y="0" type="line"/>
      <point x="459" y="689" type="line"/>
      <point x="459" y="0" type="line"/>
      <point x="111" y="0" type="line"/>
    </contour>
  </outline>
</glyph>
<glyph name="Lslash" format="1">
  <advance width="858"/>
  <unicode hex="0141"/>
  <outline>
    <contour>
      <point x="-1" y="916" type="line"/>
      <point x="699" y="1153" type="line"/>
      <point x="699" y="925" type="line"/>
      <point x="-1" y="688" type="line"/>
    </contour>
    <component base="L"/>
  </outline>
</glyph>
<glyph name="lslash" format="1">
  <advance width="588"/>
  <unicode hex="0142"/>
  <outline>
    <contour>
      <point x="13" y="921" type="line"/>
      <point x="577" y="1153" type="line"/>
      <point x="577" y="924" type="line"/>
      <point x="13" y="692" type="line"/>
    </contour>
    <component base="l" xOffset="4"/>
  </outline>
</glyph>
<glyph name="OE" format="1">
  <advance width="1264"/>
  <unicode hex="0152"/>
  <outline>
    <contour>
      <point x="530" y="1762" type="curve" smooth="yes"/>
      <point x="1181" y="1762" type="line"/>
      <point x="1181" y="1447" type="line"/>
      <point x="960" y="1447" type="line"/>
      <point x="960" y="1060" type="line"/>
      <point x="1167" y="1060" type="line"/>
      <point x="1167" y="748" type="line"/>
      <point x="960" y="748" type="line"/>
      <point x="960" y="313" type="line"/>
      <point x="1203" y="313" type="line"/>
      <point x="1203" y="0" type="line"/>
      <point x="530" y="0" type="line" smooth="yes"/>
      <point x="245" y="0"/>
      <point x="91" y="161"/>
      <point x="91" y="476" type="curve" smooth="yes"/>
      <point x="91" y="1313" type="line" smooth="yes"/>
      <point x="91" y="1616"/>
      <point x="248" y="1762"/>
    </contour>
    <contour>
      <point x="607" y="309" type="line"/>
      <point x="607" y="1445" type="line"/>
      <point x="530" y="1445" type="line" smooth="yes"/>
      <point x="462" y="1445"/>
      <point x="443" y="1401"/>
      <point x="443" y="1322" type="curve" smooth="yes"/>
      <point x="443" y="472" type="line" smooth="yes"/>
      <point x="443" y="371"/>
      <point x="448" y="310"/>
      <point x="530" y="309" type="curve"/>
    </contour>
  </outline>
</glyph>
<glyph name="oe" format="1">
  <advance width="1580"/>
  <unicode hex="0153"/>
  <outline>
    <contour>
      <point x="798" y="1420" type="curve"/>
      <point x="866" y="1486"/>
      <point x="955" y="1518"/>
      <point x="1065" y="1518" type="curve" smooth="yes"/>
      <point x="1354" y="1518"/>
      <point x="1491" y="1375"/>
      <point x="1491" y="1090" type="curve"/>
      <point x="1491" y="1090"/>
      <point x="1491" y="755"/>
      <point x="1488" y="707" type="curve"/>
      <point x="970" y="707" type="line"/>
      <point x="970" y="427" type="line" smooth="yes"/>
      <point x="970" y="342"/>
      <point x="978" y="256"/>
      <point x="1059" y="256" type="curve" smooth="yes"/>
      <point x="1147" y="256"/>
      <point x="1143" y="388"/>
      <point x="1143" y="482" type="curve" smooth="yes"/>
      <point x="1143" y="537"/>
      <point x="1143" y="573"/>
      <point x="1142" y="579" type="curve"/>
      <point x="1490" y="579" type="line"/>
      <point x="1490" y="495" type="line" smooth="yes"/>
      <point x="1490" y="159"/>
      <point x="1385" y="-18"/>
      <point x="1048" y="-18" type="curve" smooth="yes"/>
      <point x="946" y="-18"/>
      <point x="864" y="13"/>
      <point x="803" y="70" type="curve"/>
      <point x="732" y="11"/>
      <point x="645" y="-18"/>
      <point x="534" y="-18" type="curve" smooth="yes"/>
      <point x="236" y="-18"/>
      <point x="91" y="141"/>
      <point x="91" y="452" type="curve" smooth="yes"/>
      <point x="91" y="1051" type="line" smooth="yes"/>
      <point x="91" y="1333"/>
      <point x="254" y="1518"/>
      <point x="534" y="1518" type="curve" smooth="yes"/>
      <point x="635" y="1518"/>
      <point x="723" y="1486"/>
    </contour>
    <contour>
      <point x="621" y="1106" type="line"/>
      <point x="621" y="1197"/>
      <point x="592" y="1244"/>
      <point x="534" y="1244" type="curve" smooth="yes"/>
      <point x="475" y="1244"/>
      <point x="448" y="1197"/>
      <point x="448" y="1106" type="curve" smooth="yes"/>
      <point x="448" y="377" type="line" smooth="yes"/>
      <point x="448" y="306"/>
      <point x="471" y="256"/>
      <point x="534" y="256" type="curve" smooth="yes"/>
      <point x="595" y="256"/>
      <point x="621" y="306"/>
      <point x="621" y="377" type="curve" smooth="yes"/>
    </contour>
    <contour>
      <point x="1143" y="1087" type="line"/>
      <point x="1143" y="1197"/>
      <point x="1116" y="1254"/>
      <point x="1061" y="1254" type="curve" smooth="yes"/>
      <point x="973" y="1254"/>
      <point x="969" y="1149"/>
      <point x="969" y="1056" type="curve" smooth="yes"/>
      <point x="969" y="1028"/>
      <point x="971" y="961"/>
      <point x="971" y="930" type="curve"/>
      <point x="1143" y="930" type="line"/>
    </contour>
  </outline>
</glyph>
<glyph name="florin" format="1">
  <advance width="767"/>
  <unicode hex="0192"/>
  <outline>
    <contour>
      <point x="210" y="1539" type="line"/>
      <point x="210" y="1701"/>
      <point x="284" y="1780"/>
      <point x="450" y="1780" type="curve" smooth="yes"/>
      <point x="534" y="1780"/>
      <point x="600" y="1772"/>
      <point x="652" y="1752" type="curve"/>
      <point x="652" y="1534" type="line"/>
      <point x="633" y="1536"/>
      <point x="617" y="1539"/>
      <point x="607" y="1539" type="curve" smooth="yes"/>
      <point x="558" y="1539"/>
      <point x="552" y="1510"/>
      <point x="552" y="1458" type="curve" smooth="yes"/>
      <point x="552" y="1262" type="line"/>
      <point x="648" y="1262" type="line"/>
      <point x="648" y="992" type="line"/>
      <point x="552" y="992" type="line"/>
      <point x="552" y="221" type="line" smooth="yes"/>
      <point x="552" y="61"/>
      <point x="479" y="-20"/>
      <point x="318" y="-20" type="curve" smooth="yes"/>
      <point x="234" y="-20"/>
      <point x="167" y="-12"/>
      <point x="115" y="8" type="curve"/>
      <point x="115" y="226" type="line"/>
      <point x="133" y="223"/>
      <point x="147" y="221"/>
      <point x="157" y="221" type="curve" smooth="yes"/>
      <point x="210" y="221"/>
      <point x="210" y="254"/>
      <point x="210" y="305" type="curve" smooth="yes"/>
      <point x="210" y="992" type="line"/>
      <point x="107" y="992" type="line"/>
      <point x="107" y="1262" type="line"/>
      <point x="210" y="1262" type="line"/>
    </contour>
  </outline>
</glyph>
<glyph name="uni0237" format="1">
  <advance width="607"/>
  <unicode hex="0237"/>
  <outline>
    <contour>
      <point x="152" y="1500" type="line"/>
      <point x="499" y="1500" type="line"/>
      <point x="499" y="161" type="line" smooth="yes"/>
      <point x="499" y="-51"/>
      <point x="424" y="-176"/>
      <point x="222" y="-176" type="curve"/>
      <point x="145" y="-176"/>
      <point x="68" y="-167"/>
      <point x="44" y="-150" type="curve"/>
      <point x="44" y="85" type="line"/>
      <point x="51" y="85"/>
      <point x="63" y="84"/>
      <point x="70" y="84" type="curve" smooth="yes"/>
      <point x="132" y="85"/>
      <point x="152" y="114"/>
      <point x="152" y="151" type="curve" smooth="yes"/>
    </contour>
  </outline>
</glyph>
<glyph name="circumflex" format="1">
  <advance width="970"/>
  <unicode hex="02C6"/>
  <outline>
    <contour>
      <point x="286" y="2027" type="line"/>
      <point x="684" y="2027" type="line"/>
      <point x="921" y="1630" type="line"/>
      <point x="571" y="1630" type="line"/>
      <point x="485" y="1909" type="line"/>
      <point x="399" y="1630" type="line"/>
      <point x="48" y="1630" type="line"/>
    </contour>
  </outline>
</glyph>
<glyph name="caron" format="1">
  <advance width="970"/>
  <unicode hex="02C7"/>
  <outline>
    <contour>
      <point x="571" y="2029" type="line"/>
      <point x="921" y="2029" type="line"/>
      <point x="684" y="1630" type="line"/>
      <point x="286" y="1630" type="line"/>
      <point x="48" y="2029" type="line"/>
      <point x="399" y="2029" type="line"/>
      <point x="485" y="1748" type="line"/>
    </contour>
  </outline>
</glyph>
<glyph name="breve" format="1">
  <advance width="1016"/>
  <unicode hex="02D8"/>
  <outline>
    <contour>
      <point x="642" y="1942" type="curve"/>
      <point x="855" y="1942" type="line"/>
      <point x="855" y="1929" type="line" smooth="yes"/>
      <point x="855" y="1710"/>
      <point x="744" y="1612"/>
      <point x="507" y="1612" type="curve" smooth="yes"/>
      <point x="277" y="1612"/>
      <point x="161" y="1712"/>
      <point x="161" y="1927" type="curve" smooth="yes"/>
      <point x="161" y="1942" type="line"/>
      <point x="372" y="1942" type="line"/>
      <point x="372" y="1818"/>
      <point x="426" y="1799"/>
      <point x="509" y="1799" type="curve" smooth="yes"/>
      <point x="589" y="1799"/>
      <point x="642" y="1817"/>
    </contour>
  </outline>
</glyph>
<glyph name="dotaccent" format="1">
  <advance width="572"/>
  <unicode hex="02D9"/>
  <outline>
    <contour>
      <point x="110" y="1868" type="line"/>
      <point x="461" y="1868" type="line"/>
      <point x="461" y="1576" type="line"/>
      <point x="110" y="1576" type="line"/>
    </contour>
  </outline>
</glyph>
<glyph name="ring" format="1">
  <advance width="923"/>
  <unicode hex="02DA"/>
  <outline>
    <contour>
      <point x="182" y="1886" type="curve" smooth="yes"/>
      <point x="182" y="2052"/>
      <point x="291" y="2161"/>
      <point x="461" y="2161" type="curve" smooth="yes"/>
      <point x="632" y="2161"/>
      <point x="740" y="2052"/>
      <point x="740" y="1886" type="curve" smooth="yes"/>
      <point x="740" y="1722"/>
      <point x="632" y="1612"/>
      <point x="461" y="1612" type="curve" smooth="yes"/>
      <point x="291" y="1612"/>
      <point x="182" y="1719"/>
    </contour>
    <contour>
      <point x="595" y="1888" type="curve" smooth="yes"/>
      <point x="595" y="1963"/>
      <point x="551" y="2038"/>
      <point x="463" y="2038" type="curve" smooth="yes"/>
      <point x="373" y="2038"/>
      <point x="328" y="1963"/>
      <point x="328" y="1888" type="curve" smooth="yes"/>
      <point x="328" y="1811"/>
      <point x="373" y="1737"/>
      <point x="463" y="1737" type="curve" smooth="yes"/>
      <point x="551" y="1737"/>
      <point x="595" y="1811"/>
    </contour>
  </outline>
</glyph>
<glyph name="ogonek" format="1">
  <advance width="1436"/>
  <unicode hex="02DB"/>
  <outline>
    <contour>
      <point x="1014" y="0" type="curve"/>
      <point x="1152" y="0" type="line"/>
      <point x="1076" y="-91"/>
      <point x="1000" y="-192"/>
      <point x="1000" y="-303" type="curve" smooth="yes"/>
      <point x="1000" y="-399"/>
      <point x="1074" y="-429"/>
      <point x="1156" y="-429" type="curve" smooth="yes"/>
      <point x="1182" y="-429"/>
      <point x="1210" y="-426"/>
      <point x="1233" y="-421" type="curve"/>
      <point x="1233" y="-591" type="line"/>
      <point x="1210" y="-604"/>
      <point x="1132" y="-626"/>
      <point x="1064" y="-626" type="curve" smooth="yes"/>
      <point x="875" y="-626"/>
      <point x="758" y="-534"/>
      <point x="758" y="-363" type="curve" smooth="yes"/>
      <point x="758" y="-241"/>
      <point x="837" y="-98"/>
    </contour>
  </outline>
</glyph>
<glyph name="tilde" format="1">
  <advance width="1117"/>
  <unicode hex="02DC"/>
  <outline>
    <contour>
      <point x="193" y="1653" type="line"/>
      <point x="232" y="1788"/>
      <point x="297" y="1869"/>
      <point x="401" y="1869" type="curve" smooth="yes"/>
      <point x="482" y="1869"/>
      <point x="644" y="1795"/>
      <point x="694" y="1795" type="curve" smooth="yes"/>
      <point x="698" y="1795" type="line"/>
      <point x="717" y="1798"/>
      <point x="733" y="1806"/>
      <point x="754" y="1866" type="curve"/>
      <point x="922" y="1838" type="line"/>
      <point x="913" y="1774" type="line"/>
      <point x="893" y="1632"/>
      <point x="826" y="1576"/>
      <point x="719" y="1576" type="curve" smooth="yes"/>
      <point x="631" y="1576"/>
      <point x="506" y="1658"/>
      <point x="423" y="1658" type="curve" smooth="yes"/>
      <point x="415" y="1658"/>
      <point x="407" y="1658"/>
      <point x="400" y="1656" type="curve" smooth="yes"/>
      <point x="378" y="1651"/>
      <point x="367" y="1632"/>
      <point x="349" y="1597" type="curve"/>
    </contour>
  </outline>
</glyph>
<glyph name="hungarumlaut" format="1">
  <advance width="1480"/>
  <unicode hex="02DD"/>
  <outline>
    <contour>
      <point x="818" y="1685" type="line"/>
      <point x="1056" y="2024" type="line"/>
      <point x="1299" y="1915" type="line"/>
      <point x="960" y="1625" type="line"/>
    </contour>
    <contour>
      <point x="419" y="1685" type="line"/>
      <point x="602" y="2024" type="line"/>
      <point x="839" y="1913" type="line"/>
      <point x="564" y="1626" type="line"/>
    </contour>
  </outline>
</glyph>
<glyph name="uni0307" format="1">
  <advance width="572"/>
  <unicode hex="0307"/>
  <outline>
    <contour>
      <point x="-4" y="1981" type="line"/>
      <point x="562" y="1981" type="line"/>
      <point x="562" y="1643" type="line"/>
      <point x="-4" y="1643" type="line"/>
    </contour>
  </outline>
</glyph>
<glyph name="dblgravecmb" format="1">
  <advance width="825"/>
  <unicode hex="030F"/>
  <outline>
    <contour>
      <point x="-73" y="2427" type="line"/>
      <point x="172" y="2565" type="line"/>
      <point x="390" y="2256" type="line"/>
      <point x="227" y="2199" type="line"/>
    </contour>
    <contour>
      <point x="350" y="2430" type="line"/>
      <point x="577" y="2565" type="line"/>
      <point x="759" y="2256" type="line"/>
      <point x="595" y="2199" type="line"/>
    </contour>
  </outline>
</glyph>
<glyph name="uni0311" format="1">
  <advance width="1016"/>
  <unicode hex="0311"/>
  <outline>
    <contour>
      <point x="160" y="1692" type="line"/>
      <point x="161" y="1911"/>
      <point x="273" y="2005"/>
      <point x="509" y="2006" type="curve" smooth="yes"/>
      <point x="739" y="2007"/>
      <point x="855" y="1908"/>
      <point x="857" y="1693" type="curve"/>
      <point x="857" y="1678" type="line"/>
      <point x="644" y="1678" type="line"/>
      <point x="643" y="1801"/>
      <point x="590" y="1820"/>
      <point x="507" y="1819" type="curve" smooth="yes"/>
      <point x="426" y="1818"/>
      <point x="373" y="1803"/>
      <point x="374" y="1676" type="curve"/>
      <point x="160" y="1679" type="line"/>
    </contour>
  </outline>
</glyph>
<glyph name="commaaccentcomb" format="1">
  <advance width="528"/>
  <unicode hex="0326"/>
  <outline>
    <contour>
      <point x="88" y="-165" type="line"/>
      <point x="415" y="-165" type="line"/>
      <point x="415" y="-469" type="line"/>
      <point x="313" y="-804" type="line"/>
      <point x="149" y="-804" type="line"/>
      <point x="212" y="-478" type="line"/>
      <point x="88" y="-478" type="line"/>
    </contour>
  </outline>
</glyph>
<glyph name="Delta" format="1">
  <advance width="896"/>
  <unicode hex="0394"/>
  <outline>
    <contour>
      <point x="199" y="789" type="line"/>
      <point x="723" y="789" type="line"/>
      <point x="906" y="0" type="line"/>
      <point x="-10" y="0" type="line"/>
    </contour>
    <contour>
      <point x="555" y="197" type="line"/>
      <point x="492" y="695" type="line"/>
      <point x="419" y="695" type="line"/>
      <point x="334" y="197" type="line"/>
    </contour>
  </outline>
</glyph>
<glyph name="mu" format="1">
  <advance width="1093"/>
  <unicode hex="03BC"/>
  <outline>
    <contour>
      <point x="623" y="1500" type="line"/>
      <point x="967" y="1500" type="line"/>
      <point x="967" y="0" type="line"/>
      <point x="621" y="0" type="line"/>
      <point x="621" y="160" type="line"/>
      <point x="574" y="47"/>
      <point x="524" y="-18"/>
      <point x="390" y="-18" type="curve" smooth="yes"/>
      <point x="414" y="-18"/>
      <point x="414" y="-19"/>
      <point x="436" y="-25" type="curve"/>
      <point x="436" y="-186" type="line"/>
      <point x="101" y="-186" type="line"/>
      <point x="101" y="1500" type="line"/>
      <point x="452" y="1500" type="line"/>
      <point x="452" y="445" type="line" smooth="yes"/>
      <point x="452" y="331"/>
      <point x="444" y="256"/>
      <point x="533" y="256" type="curve" smooth="yes"/>
      <point x="618" y="256"/>
      <point x="621" y="352"/>
      <point x="623" y="433" type="curve" smooth="yes"/>
    </contour>
  </outline>
</glyph>
<glyph name="quoteleft" format="1">
  <advance width="579"/>
  <unicode hex="2018"/>
  <outline>
    <contour>
      <point x="237" y="1796" type="line"/>
      <point x="423" y="1796" type="line"/>
      <point x="329" y="1356" type="line"/>
      <point x="489" y="1356" type="line"/>
      <point x="489" y="1021" type="line"/>
      <point x="84" y="1021" type="line"/>
      <point x="84" y="1347" type="line"/>
    </contour>
  </outline>
</glyph>
<glyph name="quoteright" format="1">
  <advance width="579"/>
  <unicode hex="2019"/>
  <outline>
    <contour>
      <point x="86" y="1796" type="line"/>
      <point x="490" y="1796" type="line"/>
      <point x="490" y="1467" type="line"/>
      <point x="339" y="1021" type="line"/>
      <point x="151" y="1021" type="line"/>
      <point x="247" y="1458" type="line"/>
      <point x="86" y="1458" type="line"/>
    </contour>
  </outline>
</glyph>
<glyph name="quotesinglbase" format="1">
  <advance width="484"/>
  <unicode hex="201A"/>
  <outline>
    <contour>
      <point x="56" y="294" type="line"/>
      <point x="428" y="294" type="line"/>
      <point x="428" y="9" type="line"/>
      <point x="326" y="-244" type="line"/>
      <point x="119" y="-244" type="line"/>
      <point x="186" y="0" type="line"/>
      <point x="56" y="0" type="line"/>
    </contour>
  </outline>
</glyph>
<glyph name="quotedblleft" format="1">
  <advance width="1030"/>
  <unicode hex="201C"/>
  <outline>
    <contour>
      <point x="697" y="1796" type="line"/>
      <point x="905" y="1796" type="line"/>
      <point x="838" y="1464" type="line"/>
      <point x="965" y="1464" type="line"/>
      <point x="965" y="1162" type="line"/>
      <point x="594" y="1162" type="line"/>
      <point x="594" y="1455" type="line"/>
    </contour>
    <contour>
      <point x="218" y="1796" type="line"/>
      <point x="425" y="1796" type="line"/>
      <point x="358" y="1464" type="line"/>
      <point x="485" y="1464" type="line"/>
      <point x="485" y="1162" type="line"/>
      <point x="114" y="1162" type="line"/>
      <point x="114" y="1455" type="line"/>
    </contour>
  </outline>
</glyph>
<glyph name="quotedblright" format="1">
  <advance width="1077"/>
  <unicode hex="201D"/>
  <outline>
    <contour>
      <point x="609" y="1796" type="line"/>
      <point x="980" y="1796" type="line"/>
      <point x="980" y="1503" type="line"/>
      <point x="877" y="1162" type="line"/>
      <point x="670" y="1162" type="line"/>
      <point x="737" y="1494" type="line"/>
      <point x="609" y="1494" type="line"/>
    </contour>
    <contour>
      <point x="130" y="1796" type="line"/>
      <point x="501" y="1796" type="line"/>
      <point x="501" y="1503" type="line"/>
      <point x="397" y="1162" type="line"/>
      <point x="190" y="1162" type="line"/>
      <point x="257" y="1494" type="line"/>
      <point x="130" y="1494" type="line"/>
    </contour>
  </outline>
</glyph>
<glyph name="quotedblbase" format="1">
  <advance width="1016"/>
  <unicode hex="201E"/>
  <outline>
    <contour>
      <point x="610" y="300" type="line"/>
      <point x="979" y="300" type="line"/>
      <point x="979" y="7" type="line"/>
      <point x="877" y="-334" type="line"/>
      <point x="670" y="-334" type="line"/>
      <point x="737" y="0" type="line"/>
      <point x="610" y="0" type="line"/>
    </contour>
    <contour>
      <point x="130" y="300" type="line"/>
      <point x="499" y="300" type="line"/>
      <point x="499" y="7" type="line"/>
      <point x="398" y="-334" type="line"/>
      <point x="190" y="-334" type="line"/>
      <point x="257" y="0" type="line"/>
      <point x="130" y="0" type="line"/>
    </contour>
  </outline>
</glyph>
<glyph name="dagger" format="1">
  <advance width="909"/>
  <unicode hex="2020"/>
  <outline>
    <contour>
      <point x="278" y="1592" type="line"/>
      <point x="634" y="1592" type="line"/>
      <point x="634" y="1182" type="line"/>
      <point x="818" y="1182" type="line"/>
      <point x="818" y="893" type="line"/>
      <point x="634" y="893" type="line"/>
      <point x="634" y="0" type="line"/>
      <point x="278" y="0" type="line"/>
      <point x="278" y="893" type="line"/>
      <point x="91" y="893" type="line"/>
      <point x="91" y="1182" type="line"/>
      <point x="278" y="1182" type="line"/>
    </contour>
  </outline>
</glyph>
<glyph name="daggerdbl" format="1">
  <advance width="884"/>
  <unicode hex="2021"/>
  <outline>
    <contour>
      <point x="278" y="1592" type="line"/>
      <point x="634" y="1592" type="line"/>
      <point x="634" y="1182" type="line"/>
      <point x="818" y="1182" type="line"/>
      <point x="818" y="893" type="line"/>
      <point x="634" y="893" type="line"/>
      <point x="634" y="658" type="line"/>
      <point x="818" y="658" type="line"/>
      <point x="818" y="369" type="line"/>
      <point x="634" y="369" type="line"/>
      <point x="634" y="0" type="line"/>
      <point x="278" y="0" type="line"/>
      <point x="278" y="369" type="line"/>
      <point x="91" y="369" type="line"/>
      <point x="91" y="658" type="line"/>
      <point x="278" y="658" type="line"/>
      <point x="278" y="893" type="line"/>
      <point x="91" y="893" type="line"/>
      <point x="91" y="1182" type="line"/>
      <point x="278" y="1182" type="line"/>
    </contour>
  </outline>
</glyph>
<glyph name="bullet" format="1">
  <advance width="861"/>
  <unicode hex="2022"/>
  <outline>
    <contour>
      <point x="121" y="741" type="curve" smooth="yes"/>
      <point x="121" y="942"/>
      <point x="233" y="1075"/>
      <point x="430" y="1075" type="curve" smooth="yes"/>
      <point x="626" y="1075"/>
      <point x="740" y="942"/>
      <point x="740" y="741" type="curve" smooth="yes"/>
      <point x="740" y="540"/>
      <point x="626" y="407"/>
      <point x="430" y="407" type="curve" smooth="yes"/>
      <point x="233" y="407"/>
      <point x="121" y="540"/>
    </contour>
  </outline>
</glyph>
<glyph name="perthousand" format="1">
  <advance width="3197"/>
  <unicode hex="2030"/>
  <outline>
    <contour>
      <point x="1329" y="1762" type="line"/>
      <point x="1579" y="1762" type="line"/>
      <point x="936" y="0" type="line"/>
      <point x="676" y="0" type="line"/>
    </contour>
    <contour>
      <point x="565" y="1428" type="line"/>
      <point x="565" y="1508"/>
      <point x="550" y="1557"/>
      <point x="471" y="1557" type="curve" smooth="yes"/>
      <point x="392" y="1557"/>
      <point x="377" y="1507"/>
      <point x="377" y="1428" type="curve" smooth="yes"/>
      <point x="377" y="942" type="line" smooth="yes"/>
      <point x="377" y="861"/>
      <point x="398" y="804"/>
      <point x="471" y="804" type="curve" smooth="yes"/>
      <point x="544" y="804"/>
      <point x="565" y="861"/>
      <point x="565" y="942" type="curve" smooth="yes"/>
    </contour>
    <contour>
      <point x="94" y="1362" type="line"/>
      <point x="94" y="1634"/>
      <point x="209" y="1780"/>
      <point x="471" y="1780" type="curve" smooth="yes"/>
      <point x="731" y="1780"/>
      <point x="846" y="1634"/>
      <point x="846" y="1362" type="curve" smooth="yes"/>
      <point x="846" y="999" type="line" smooth="yes"/>
      <point x="846" y="742"/>
      <point x="718" y="579"/>
      <point x="471" y="579" type="curve" smooth="yes"/>
      <point x="224" y="579"/>
      <point x="94" y="742"/>
      <point x="94" y="999" type="curve" smooth="yes"/>
    </contour>
    <contour>
      <point x="1878" y="827" type="line"/>
      <point x="1878" y="907"/>
      <point x="1863" y="956"/>
      <point x="1784" y="956" type="curve" smooth="yes"/>
      <point x="1705" y="956"/>
      <point x="1690" y="906"/>
      <point x="1690" y="827" type="curve" smooth="yes"/>
      <point x="1690" y="341" type="line" smooth="yes"/>
      <point x="1690" y="260"/>
      <point x="1711" y="203"/>
      <point x="1784" y="203" type="curve" smooth="yes"/>
      <point x="1857" y="203"/>
      <point x="1878" y="260"/>
      <point x="1878" y="341" type="curve" smooth="yes"/>
    </contour>
    <contour>
      <point x="1407" y="761" type="line"/>
      <point x="1407" y="1033"/>
      <point x="1522" y="1179"/>
      <point x="1784" y="1179" type="curve" smooth="yes"/>
      <point x="2044" y="1179"/>
      <point x="2159" y="1033"/>
      <point x="2159" y="761" type="curve" smooth="yes"/>
      <point x="2159" y="398" type="line" smooth="yes"/>
      <point x="2159" y="141"/>
      <point x="2032" y="-22"/>
      <point x="1784" y="-22" type="curve" smooth="yes"/>
      <point x="1535" y="-22"/>
      <point x="1407" y="141"/>
      <point x="1407" y="398" type="curve" smooth="yes"/>
    </contour>
    <contour>
      <point x="2351" y="761" type="line"/>
      <point x="2351" y="1033"/>
      <point x="2466" y="1179"/>
      <point x="2726" y="1179" type="curve" smooth="yes"/>
      <point x="2990" y="1179"/>
      <point x="3105" y="1033"/>
      <point x="3105" y="761" type="curve" smooth="yes"/>
      <point x="3105" y="398" type="line" smooth="yes"/>
      <point x="3105" y="141"/>
      <point x="2975" y="-22"/>
      <point x="2726" y="-22" type="curve" smooth="yes"/>
      <point x="2481" y="-22"/>
      <point x="2351" y="141"/>
      <point x="2351" y="398" type="curve" smooth="yes"/>
    </contour>
    <contour>
      <point x="2823" y="827" type="line"/>
      <point x="2823" y="907"/>
      <point x="2805" y="956"/>
      <point x="2726" y="956" type="curve" smooth="yes"/>
      <point x="2647" y="956"/>
      <point x="2632" y="906"/>
      <point x="2632" y="827" type="curve" smooth="yes"/>
      <point x="2632" y="341" type="line" smooth="yes"/>
      <point x="2632" y="260"/>
      <point x="2655" y="203"/>
      <point x="2726" y="203" type="curve" smooth="yes"/>
      <point x="2799" y="203"/>
      <point x="2823" y="260"/>
      <point x="2823" y="341" type="curve" smooth="yes"/>
    </contour>
  </outline>
</glyph>
<glyph name="guilsinglleft" format="1">
  <advance width="606"/>
  <unicode hex="2039"/>
  <outline>
    <contour>
      <point x="39" y="953" type="line"/>
      <point x="548" y="1224" type="line"/>
      <point x="548" y="872" type="line"/>
      <point x="236" y="749" type="line"/>
      <point x="548" y="617" type="line"/>
      <point x="548" y="265" type="line"/>
      <point x="39" y="550" type="line"/>
    </contour>
  </outline>
</glyph>
<glyph name="guilsinglright" format="1">
  <advance width="727"/>
  <unicode hex="203A"/>
  <outline>
    <contour>
      <point x="120" y="872" type="line"/>
      <point x="120" y="1224" type="line"/>
      <point x="629" y="953" type="line"/>
      <point x="629" y="550" type="line"/>
      <point x="120" y="265" type="line"/>
      <point x="120" y="617" type="line"/>
      <point x="432" y="749" type="line"/>
    </contour>
  </outline>
</glyph>
<glyph name="fraction" format="1">
  <advance width="829"/>
  <unicode hex="2044"/>
  <outline>
    <contour>
      <point x="519" y="1766" type="line"/>
      <point x="797" y="1766" type="line"/>
      <point x="308" y="0" type="line"/>
      <point x="31" y="0" type="line"/>
    </contour>
  </outline>
</glyph>
<glyph name="uni2074" format="1">
  <advance width="848"/>
  <unicode hex="2074"/>
  <outline>
    <contour>
      <point x="331" y="1762" type="line"/>
      <point x="722" y="1762" type="line"/>
      <point x="722" y="1024" type="line"/>
      <point x="771" y="1024" type="line"/>
      <point x="771" y="823" type="line"/>
      <point x="722" y="823" type="line"/>
      <point x="722" y="642" type="line"/>
      <point x="469" y="642" type="line"/>
      <point x="469" y="823" type="line"/>
      <point x="97" y="823" type="line"/>
      <point x="97" y="997" type="line"/>
    </contour>
    <contour>
      <point x="469" y="1024" type="line"/>
      <point x="469" y="1511" type="line"/>
      <point x="330" y="1024" type="line"/>
    </contour>
  </outline>
</glyph>
<glyph name="Euro" format="1">
  <advance width="1076"/>
  <unicode hex="20AC"/>
  <outline>
    <contour>
      <point x="23" y="1096" type="line"/>
      <point x="590" y="1096" type="line"/>
      <point x="590" y="966" type="line"/>
      <point x="373" y="966" type="line"/>
      <point x="373" y="869" type="line"/>
      <point x="590" y="869" type="line"/>
      <point x="590" y="731" type="line"/>
      <point x="23" y="731" type="line"/>
      <point x="23" y="869" type="line"/>
      <point x="164" y="869" type="line"/>
      <point x="164" y="966" type="line"/>
      <point x="23" y="966" type="line"/>
    </contour>
    <component base="C"/>
  </outline>
</glyph>
<glyph name="trademark" format="1">
  <advance width="1868"/>
  <unicode hex="2122"/>
  <outline>
    <contour>
      <point x="1366" y="1762" type="line"/>
      <point x="1766" y="1762" type="line"/>
      <point x="1766" y="551" type="line"/>
      <point x="1511" y="551" type="line"/>
      <point x="1511" y="990" type="line"/>
      <point x="1512" y="1430" type="line"/>
      <point x="1373" y="551" type="line"/>
      <point x="1138" y="551" type="line"/>
      <point x="989" y="1430" type="line"/>
      <point x="989" y="990" type="line"/>
      <point x="989" y="551" type="line"/>
      <point x="740" y="551" type="line"/>
      <point x="740" y="1762" type="line"/>
      <point x="1137" y="1762" type="line"/>
      <point x="1252" y="1114" type="line"/>
    </contour>
    <contour>
      <point x="53" y="1762" type="line"/>
      <point x="629" y="1762" type="line"/>
      <point x="629" y="1534" type="line"/>
      <point x="472" y="1534" type="line"/>
      <point x="472" y="551" type="line"/>
      <point x="210" y="551" type="line"/>
      <point x="210" y="1534" type="line"/>
      <point x="53" y="1534" type="line"/>
    </contour>
  </outline>
</glyph>
<glyph name="product" format="1">
  <advance width="1105"/>
  <unicode hex="220F"/>
  <outline>
    <contour>
      <point x="122" y="1762" type="line"/>
      <point x="980" y="1762" type="line"/>
      <point x="980" y="0" type="line"/>
      <point x="638" y="0" type="line"/>
      <point x="638" y="1467" type="line"/>
      <point x="467" y="1467" type="line"/>
      <point x="467" y="0" type="line"/>
      <point x="122" y="0" type="line"/>
    </contour>
  </outline>
</glyph>
<glyph name="summation" format="1">
  <advance width="950"/>
  <unicode hex="2211"/>
  <outline>
    <contour>
      <point x="111" y="1761" type="line"/>
      <point x="777" y="1761" type="line"/>
      <point x="777" y="1509" type="line"/>
      <point x="438" y="1509" type="line"/>
      <point x="726" y="880" type="line"/>
      <point x="438" y="280" type="line"/>
      <point x="777" y="280" type="line"/>
      <point x="777" y="0" type="line"/>
      <point x="111" y="0" type="line"/>
      <point x="111" y="276" type="line"/>
      <point x="428" y="881" type="line"/>
      <point x="111" y="1513" type="line"/>
    </contour>
  </outline>
</glyph>
<glyph name="radical" format="1">
  <advance width="1522"/>
  <unicode hex="221A"/>
  <outline>
    <contour>
      <point x="679" y="1140" type="line"/>
      <point x="1342" y="1140" type="line"/>
      <point x="1342" y="858" type="line"/>
      <point x="937" y="858" type="line"/>
      <point x="727" y="0" type="line"/>
      <point x="246" y="0" type="line"/>
      <point x="145" y="741" type="line"/>
      <point x="487" y="741" type="line"/>
      <point x="486" y="330" type="line"/>
    </contour>
  </outline>
</glyph>
<glyph name="infinity" format="1">
  <advance width="1300"/>
  <unicode hex="221E"/>
  <outline>
    <contour>
      <point x="639" y="885" type="curve"/>
      <point x="734" y="1003"/>
      <point x="800" y="1041"/>
      <point x="912" y="1041" type="curve" smooth="yes"/>
      <point x="1107" y="1041"/>
      <point x="1182" y="934"/>
      <point x="1182" y="744" type="curve" smooth="yes"/>
      <point x="1182" y="556"/>
      <point x="1112" y="439"/>
      <point x="912" y="439" type="curve" smooth="yes"/>
      <point x="745" y="439"/>
      <point x="679" y="533"/>
      <point x="639" y="585" type="curve"/>
      <point x="604" y="546"/>
      <point x="512" y="452"/>
      <point x="370" y="452" type="curve" smooth="yes"/>
      <point x="172" y="452"/>
      <point x="108" y="557"/>
      <point x="108" y="744" type="curve" smooth="yes"/>
      <point x="108" y="928"/>
      <point x="182" y="1028"/>
      <point x="370" y="1028" type="curve" smooth="yes"/>
      <point x="480" y="1028"/>
      <point x="543" y="992"/>
    </contour>
    <contour>
      <point x="562" y="740" type="curve"/>
      <point x="522" y="733"/>
      <point x="525" y="708"/>
      <point x="515" y="708" type="curve" smooth="yes"/>
      <point x="468" y="708"/>
      <point x="459" y="733"/>
      <point x="459" y="740" type="curve" smooth="yes"/>
      <point x="459" y="750"/>
      <point x="468" y="773"/>
      <point x="515" y="773" type="curve" smooth="yes"/>
      <point x="526" y="773"/>
      <point x="522" y="750"/>
    </contour>
    <contour>
      <point x="833" y="740" type="curve" smooth="yes"/>
      <point x="833" y="730"/>
      <point x="823" y="707"/>
      <point x="774" y="707" type="curve" smooth="yes"/>
      <point x="758" y="707"/>
      <point x="763" y="730"/>
      <point x="722" y="740" type="curve"/>
      <point x="759" y="750"/>
      <point x="756" y="773"/>
      <point x="774" y="773" type="curve" smooth="yes"/>
      <point x="823" y="773"/>
      <point x="833" y="750"/>
    </contour>
  </outline>
</glyph>
<glyph name="approxequal" format="1">
  <advance width="1117"/>
  <unicode hex="2248"/>
  <outline>
    <contour>
      <point x="736" y="1107" type="curve"/>
      <point x="736" y="1109"/>
      <point x="788" y="1127"/>
      <point x="813" y="1215" type="curve"/>
      <point x="1032" y="1173" type="line"/>
      <point x="1029" y="1166"/>
      <point x="907" y="779"/>
      <point x="770" y="779" type="curve" smooth="yes"/>
      <point x="656" y="779"/>
      <point x="490" y="902"/>
      <point x="384" y="902" type="curve" smooth="yes"/>
      <point x="339" y="902"/>
      <point x="319" y="879"/>
      <point x="289" y="809" type="curve"/>
      <point x="86" y="894" type="line"/>
      <point x="137" y="1095"/>
      <point x="218" y="1219"/>
      <point x="356" y="1219" type="curve" smooth="yes"/>
      <point x="460" y="1219"/>
      <point x="672" y="1107"/>
    </contour>
    <contour>
      <point x="736" y="549" type="curve"/>
      <point x="736" y="551"/>
      <point x="788" y="569"/>
      <point x="813" y="657" type="curve"/>
      <point x="1032" y="615" type="line"/>
      <point x="1029" y="608"/>
      <point x="907" y="221"/>
      <point x="770" y="221" type="curve" smooth="yes"/>
      <point x="656" y="221"/>
      <point x="490" y="344"/>
      <point x="384" y="344" type="curve" smooth="yes"/>
      <point x="339" y="344"/>
      <point x="319" y="321"/>
      <point x="289" y="251" type="curve"/>
      <point x="86" y="336" type="line"/>
      <point x="137" y="538"/>
      <point x="218" y="661"/>
      <point x="356" y="661" type="curve" smooth="yes"/>
      <point x="460" y="661"/>
      <point x="672" y="549"/>
    </contour>
  </outline>
</glyph>
<glyph name="lessequal" format="1">
  <advance width="781"/>
  <unicode hex="2264"/>
  <outline>
    <contour>
      <point x="99" y="1043" type="line"/>
      <point x="668" y="1385" type="line"/>
      <point x="668" y="1034" type="line"/>
      <point x="323" y="838" type="line"/>
      <point x="668" y="644" type="line"/>
      <point x="668" y="292" type="line"/>
      <point x="99" y="638" type="line"/>
    </contour>
    <contour>
      <point x="126" y="227" type="line"/>
      <point x="642" y="227" type="line"/>
      <point x="642" y="0" type="line"/>
      <point x="126" y="0" type="line"/>
    </contour>
  </outline>
</glyph>
<glyph name="greaterequal" format="1">
  <advance width="781"/>
  <unicode hex="2265"/>
  <outline>
    <contour>
      <point x="113" y="1034" type="line"/>
      <point x="113" y="1385" type="line"/>
      <point x="682" y="1043" type="line"/>
      <point x="682" y="638" type="line"/>
      <point x="113" y="292" type="line"/>
      <point x="113" y="644" type="line"/>
      <point x="457" y="838" type="line"/>
    </contour>
    <contour>
      <point x="136" y="227" type="line"/>
      <point x="655" y="227" type="line"/>
      <point x="655" y="0" type="line"/>
      <point x="136" y="0" type="line"/>
    </contour>
  </outline>
</glyph>
<glyph name="lozenge" format="1">
  <advance width="921"/>
  <unicode hex="25CA"/>
  <outline>
    <contour>
      <point x="208" y="987" type="line"/>
      <point x="731" y="987" type="line"/>
      <point x="942" y="478" type="line"/>
      <point x="731" y="0" type="line"/>
      <point x="208" y="0" type="line"/>
      <point x="-21" y="478" type="line"/>
    </contour>
    <contour>
      <point x="554" y="478" type="line"/>
      <point x="475" y="798" type="line"/>
      <point x="443" y="798" type="line"/>
      <point x="364" y="478" type="line"/>
      <point x="443" y="179" type="line"/>
      <point x="475" y="179" type="line"/>
    </contour>
  </outline>
</glyph>
<glyph name="uniFB00" format="1">
  <advance width="1313"/>
  <unicode hex="FB00"/>
  <outline>
    <contour>
      <point x="794" y="1525" type="line"/>
      <point x="794" y="1686"/>
      <point x="911" y="1781"/>
      <point x="1072" y="1781" type="curve" smooth="yes"/>
      <point x="1158" y="1781"/>
      <point x="1229" y="1762"/>
      <point x="1259" y="1751" type="curve"/>
      <point x="1259" y="1553" type="line"/>
      <point x="1244" y="1554"/>
      <point x="1229" y="1554"/>
      <point x="1214" y="1554" type="curve" smooth="yes"/>
      <point x="1177" y="1554"/>
      <point x="1140" y="1543"/>
      <point x="1140" y="1494" type="curve" smooth="yes"/>
      <point x="1140" y="1440" type="line"/>
      <point x="1259" y="1440" type="line"/>
      <point x="1259" y="1193" type="line"/>
      <point x="1140" y="1193" type="line"/>
      <point x="1140" y="0" type="line"/>
      <point x="792" y="0" type="line"/>
      <point x="792" y="1193" type="line"/>
      <point x="484" y="1193" type="line"/>
      <point x="484" y="0" type="line"/>
      <point x="136" y="0" type="line"/>
      <point x="136" y="1193" type="line"/>
      <point x="38" y="1193" type="line"/>
      <point x="38" y="1440" type="line"/>
      <point x="138" y="1440" type="line"/>
      <point x="138" y="1525" type="line" smooth="yes"/>
      <point x="138" y="1686"/>
      <point x="254" y="1781"/>
      <point x="415" y="1781" type="curve" smooth="yes"/>
      <point x="501" y="1781"/>
      <point x="573" y="1762"/>
      <point x="602" y="1751" type="curve"/>
      <point x="602" y="1553" type="line"/>
      <point x="587" y="1554"/>
      <point x="573" y="1554"/>
      <point x="558" y="1554" type="curve" smooth="yes"/>
      <point x="520" y="1554"/>
      <point x="484" y="1543"/>
      <point x="484" y="1494" type="curve" smooth="yes"/>
      <point x="484" y="1440" type="line"/>
      <point x="794" y="1440" type="line"/>
    </contour>
  </outline>
</glyph>
<glyph name="uniFB01" format="1">
  <advance width="1233"/>
  <unicode hex="FB01"/>
  <outline>
    <contour>
      <point x="138" y="1609" type="line"/>
      <point x="138" y="1770"/>
      <point x="254" y="1866"/>
      <point x="415" y="1866" type="curve" smooth="yes"/>
      <point x="501" y="1866"/>
      <point x="573" y="1847"/>
      <point x="602" y="1835" type="curve"/>
      <point x="602" y="1637" type="line"/>
      <point x="587" y="1639"/>
      <point x="573" y="1638"/>
      <point x="558" y="1638" type="curve" smooth="yes"/>
      <point x="520" y="1638"/>
      <point x="484" y="1627"/>
      <point x="484" y="1579" type="curve" smooth="yes"/>
      <point x="484" y="1500" type="line"/>
      <point x="1121" y="1500" type="line"/>
      <point x="1121" y="0" type="line"/>
      <point x="773" y="0" type="line"/>
      <point x="773" y="1254" type="line"/>
      <point x="484" y="1254" type="line"/>
      <point x="484" y="0" type="line"/>
      <point x="136" y="0" type="line"/>
      <point x="136" y="1254" type="line"/>
      <point x="38" y="1254" type="line"/>
      <point x="38" y="1500" type="line"/>
      <point x="138" y="1500" type="line"/>
    </contour>
    <contour>
      <point x="773" y="1800" type="line"/>
      <point x="1121" y="1800" type="line"/>
      <point x="1121" y="1601" type="line"/>
      <point x="773" y="1601" type="line"/>
    </contour>
  </outline>
</glyph>
<glyph name="uniFB02" format="1">
  <advance width="1236"/>
  <unicode hex="FB02"/>
  <outline>
    <contour>
      <point x="138" y="1525" type="line"/>
      <point x="138" y="1652"/>
      <point x="-18" y="1801"/>
      <point x="424" y="1801" type="curve" smooth="yes"/>
      <point x="607" y="1801"/>
      <point x="949" y="1767"/>
      <point x="1119" y="1754" type="curve"/>
      <point x="1119" y="0" type="line"/>
      <point x="773" y="0" type="line"/>
      <point x="773" y="1553" type="line"/>
      <point x="652" y="1581"/>
      <point x="576" y="1594"/>
      <point x="532" y="1594" type="curve" smooth="yes"/>
      <point x="369" y="1594"/>
      <point x="484" y="1486"/>
      <point x="484" y="1494" type="curve" smooth="yes"/>
      <point x="484" y="1440" type="line"/>
      <point x="602" y="1440" type="line"/>
      <point x="602" y="1193" type="line"/>
      <point x="484" y="1193" type="line"/>
      <point x="484" y="0" type="line"/>
      <point x="136" y="0" type="line"/>
      <point x="136" y="1193" type="line"/>
      <point x="38" y="1193" type="line"/>
      <point x="38" y="1440" type="line"/>
      <point x="138" y="1440" type="line"/>
    </contour>
  </outline>
</glyph>
<glyph name="uniFB03" format="1">
  <advance width="1890"/>
  <unicode hex="FB03"/>
  <outline>
    <contour>
      <point x="794" y="1604" type="line"/>
      <point x="794" y="1765"/>
      <point x="911" y="1861"/>
      <point x="1072" y="1861" type="curve" smooth="yes"/>
      <point x="1158" y="1861"/>
      <point x="1229" y="1842"/>
      <point x="1259" y="1830" type="curve"/>
      <point x="1259" y="1633" type="line"/>
      <point x="1244" y="1634"/>
      <point x="1229" y="1634"/>
      <point x="1214" y="1634" type="curve" smooth="yes"/>
      <point x="1177" y="1634"/>
      <point x="1140" y="1622"/>
      <point x="1140" y="1574" type="curve" smooth="yes"/>
      <point x="1140" y="1500" type="line"/>
      <point x="1777" y="1500" type="line"/>
      <point x="1777" y="0" type="line"/>
      <point x="1429" y="0" type="line"/>
      <point x="1429" y="1254" type="line"/>
      <point x="1140" y="1254" type="line"/>
      <point x="1140" y="0" type="line"/>
      <point x="792" y="0" type="line"/>
      <point x="792" y="1254" type="line"/>
      <point x="484" y="1254" type="line"/>
      <point x="484" y="0" type="line"/>
      <point x="136" y="0" type="line"/>
      <point x="136" y="1254" type="line"/>
      <point x="38" y="1254" type="line"/>
      <point x="38" y="1500" type="line"/>
      <point x="138" y="1500" type="line"/>
      <point x="138" y="1604" type="line" smooth="yes"/>
      <point x="138" y="1765"/>
      <point x="254" y="1861"/>
      <point x="415" y="1861" type="curve" smooth="yes"/>
      <point x="501" y="1861"/>
      <point x="573" y="1842"/>
      <point x="602" y="1830" type="curve"/>
      <point x="602" y="1633" type="line"/>
      <point x="587" y="1634"/>
      <point x="573" y="1634"/>
      <point x="558" y="1634" type="curve" smooth="yes"/>
      <point x="520" y="1634"/>
      <point x="484" y="1622"/>
      <point x="484" y="1574" type="curve" smooth="yes"/>
      <point x="484" y="1500" type="line"/>
      <point x="794" y="1500" type="line"/>
    </contour>
    <contour>
      <point x="1429" y="1800" type="line"/>
      <point x="1777" y="1800" type="line"/>
      <point x="1777" y="1601" type="line"/>
      <point x="1429" y="1601" type="line"/>
    </contour>
  </outline>
</glyph>
<glyph name="uniFB04" format="1">
  <advance width="1892"/>
  <unicode hex="FB04"/>
  <outline>
    <contour>
      <point x="794" y="1525" type="line"/>
      <point x="794" y="1652"/>
      <point x="638" y="1801"/>
      <point x="1080" y="1801" type="curve" smooth="yes"/>
      <point x="1263" y="1801"/>
      <point x="1606" y="1767"/>
      <point x="1775" y="1754" type="curve"/>
      <point x="1775" y="0" type="line"/>
      <point x="1430" y="0" type="line"/>
      <point x="1430" y="1553" type="line"/>
      <point x="1308" y="1581"/>
      <point x="1232" y="1594"/>
      <point x="1188" y="1594" type="curve" smooth="yes"/>
      <point x="1025" y="1594"/>
      <point x="1140" y="1486"/>
      <point x="1140" y="1494" type="curve" smooth="yes"/>
      <point x="1140" y="1440" type="line"/>
      <point x="1259" y="1440" type="line"/>
      <point x="1259" y="1193" type="line"/>
      <point x="1140" y="1193" type="line"/>
      <point x="1140" y="0" type="line"/>
      <point x="792" y="0" type="line"/>
      <point x="792" y="1193" type="line"/>
      <point x="484" y="1193" type="line"/>
      <point x="484" y="0" type="line"/>
      <point x="136" y="0" type="line"/>
      <point x="136" y="1193" type="line"/>
      <point x="38" y="1193" type="line"/>
      <point x="38" y="1440" type="line"/>
      <point x="138" y="1440" type="line"/>
      <point x="138" y="1525" type="line" smooth="yes"/>
      <point x="138" y="1686"/>
      <point x="254" y="1781"/>
      <point x="415" y="1781" type="curve" smooth="yes"/>
      <point x="501" y="1781"/>
      <point x="573" y="1762"/>
      <point x="602" y="1751" type="curve"/>
      <point x="602" y="1553" type="line"/>
      <point x="587" y="1554"/>
      <point x="573" y="1554"/>
      <point x="558" y="1554" type="curve" smooth="yes"/>
      <point x="520" y="1554"/>
      <point x="484" y="1543"/>
      <point x="484" y="1494" type="curve" smooth="yes"/>
      <point x="484" y="1440" type="line"/>
      <point x="794" y="1440" type="line"/>
    </contour>
  </outline>
</glyph>
